<mxfile host="app.diagrams.net" modified="2020-05-15T17:03:28.305Z" agent="5.0 (Macintosh)" etag="2eh_zjEN5JrN6IiJ2eOu" version="13.0.1" type="github">
  <diagram id="Ae3CV88c5WvhsWiGwa3m" name="Page-1">
    <mxGraphModel dx="760" dy="470" grid="1" gridSize="10" guides="1" tooltips="1" connect="1" arrows="1" fold="1" page="1" pageScale="1" pageWidth="850" pageHeight="1100" math="0" shadow="0">
      <root>
        <mxCell id="0" />
        <mxCell id="1" parent="0" />
        <mxCell id="27J3_kE1SquX3wN85o0Z-312" value="" style="rounded=0;whiteSpace=wrap;html=1;strokeColor=none;strokeWidth=1;fillColor=#ffffff;gradientColor=none;fontColor=#33001A;" vertex="1" parent="1">
          <mxGeometry x="45" y="980" width="475" height="360" as="geometry" />
        </mxCell>
        <mxCell id="27J3_kE1SquX3wN85o0Z-275" value="" style="group" vertex="1" connectable="0" parent="1">
          <mxGeometry x="110" y="1000" width="439" height="355" as="geometry" />
        </mxCell>
        <mxCell id="27J3_kE1SquX3wN85o0Z-262" value="" style="endArrow=classic;html=1;shadow=0;strokeColor=#33001A;fontColor=#33001A;" edge="1" parent="27J3_kE1SquX3wN85o0Z-275">
          <mxGeometry width="50" height="50" relative="1" as="geometry">
            <mxPoint x="198" y="20" as="sourcePoint" />
            <mxPoint x="198" y="70" as="targetPoint" />
          </mxGeometry>
        </mxCell>
        <mxCell id="27J3_kE1SquX3wN85o0Z-284" value="" style="rounded=0;whiteSpace=wrap;html=1;strokeColor=#b85450;strokeWidth=1;fillColor=#f8cecc;" vertex="1" parent="27J3_kE1SquX3wN85o0Z-275">
          <mxGeometry x="164" y="-2.5" width="73" height="25" as="geometry" />
        </mxCell>
        <mxCell id="27J3_kE1SquX3wN85o0Z-220" value="" style="endArrow=classic;html=1;entryX=0.663;entryY=-0.1;entryDx=0;entryDy=0;entryPerimeter=0;" edge="1" parent="27J3_kE1SquX3wN85o0Z-275" target="27J3_kE1SquX3wN85o0Z-210">
          <mxGeometry width="50" height="50" relative="1" as="geometry">
            <mxPoint x="181" y="92" as="sourcePoint" />
            <mxPoint x="7" y="270" as="targetPoint" />
          </mxGeometry>
        </mxCell>
        <mxCell id="27J3_kE1SquX3wN85o0Z-226" value="" style="endArrow=classic;html=1;entryX=0.44;entryY=-0.15;entryDx=0;entryDy=0;entryPerimeter=0;exitX=0.726;exitY=1.2;exitDx=0;exitDy=0;exitPerimeter=0;" edge="1" parent="27J3_kE1SquX3wN85o0Z-275" source="27J3_kE1SquX3wN85o0Z-229" target="27J3_kE1SquX3wN85o0Z-212">
          <mxGeometry width="50" height="50" relative="1" as="geometry">
            <mxPoint x="196.35072463768122" y="50" as="sourcePoint" />
            <mxPoint x="60.039999999999964" y="178" as="targetPoint" />
          </mxGeometry>
        </mxCell>
        <mxCell id="27J3_kE1SquX3wN85o0Z-227" value="" style="endArrow=classic;html=1;exitX=0.425;exitY=1.1;exitDx=0;exitDy=0;exitPerimeter=0;" edge="1" parent="27J3_kE1SquX3wN85o0Z-275" source="27J3_kE1SquX3wN85o0Z-229" target="27J3_kE1SquX3wN85o0Z-211">
          <mxGeometry width="50" height="50" relative="1" as="geometry">
            <mxPoint x="196.00000000000003" y="40" as="sourcePoint" />
            <mxPoint x="60.039999999999964" y="178" as="targetPoint" />
          </mxGeometry>
        </mxCell>
        <mxCell id="27J3_kE1SquX3wN85o0Z-282" value="" style="rounded=0;whiteSpace=wrap;html=1;strokeColor=#82b366;strokeWidth=1;fillColor=#d5e8d4;" vertex="1" parent="27J3_kE1SquX3wN85o0Z-275">
          <mxGeometry x="165.5" y="68.5" width="73" height="25" as="geometry" />
        </mxCell>
        <mxCell id="27J3_kE1SquX3wN85o0Z-271" value="" style="ellipse;whiteSpace=wrap;html=1;dashed=1;strokeWidth=1;fillColor=#f9f7ed;strokeColor=#36393d;" vertex="1" parent="27J3_kE1SquX3wN85o0Z-275">
          <mxGeometry x="284" y="234.5" width="110.4" height="55.5" as="geometry" />
        </mxCell>
        <mxCell id="27J3_kE1SquX3wN85o0Z-269" value="" style="ellipse;whiteSpace=wrap;html=1;dashed=1;strokeWidth=1;fillColor=#f9f7ed;strokeColor=#36393d;" vertex="1" parent="27J3_kE1SquX3wN85o0Z-275">
          <mxGeometry x="146.6" y="234.5" width="110.4" height="55.5" as="geometry" />
        </mxCell>
        <mxCell id="27J3_kE1SquX3wN85o0Z-268" value="" style="ellipse;whiteSpace=wrap;html=1;dashed=1;strokeWidth=1;fillColor=#f9f7ed;strokeColor=#36393d;" vertex="1" parent="27J3_kE1SquX3wN85o0Z-275">
          <mxGeometry y="234.5" width="110.4" height="55.5" as="geometry" />
        </mxCell>
        <mxCell id="27J3_kE1SquX3wN85o0Z-194" value="&lt;b&gt;&lt;font style=&quot;font-size: 15px&quot;&gt;&amp;nbsp; &amp;nbsp; &amp;nbsp; &amp;nbsp; &amp;nbsp; &amp;nbsp; &amp;nbsp; &amp;nbsp; &amp;nbsp; &amp;nbsp; &amp;nbsp; &amp;nbsp; &amp;nbsp; &amp;nbsp;&lt;/font&gt;&lt;/b&gt;&lt;br&gt;&lt;br&gt;&amp;nbsp; &amp;nbsp; &amp;nbsp; &amp;nbsp; &amp;nbsp; &amp;nbsp; &amp;nbsp; &amp;nbsp; &amp;nbsp; &amp;nbsp; &amp;nbsp; &amp;nbsp; &amp;nbsp; &amp;nbsp; &amp;nbsp; &amp;nbsp; &amp;nbsp; &amp;nbsp; &amp;nbsp; &amp;nbsp; &amp;nbsp; &amp;nbsp; &amp;nbsp; &amp;nbsp; &amp;nbsp; &amp;nbsp; &amp;nbsp; &amp;nbsp; &amp;nbsp; &amp;nbsp; &amp;nbsp; &amp;nbsp; &amp;nbsp; &amp;nbsp; &amp;nbsp; &amp;nbsp; &amp;nbsp; &amp;nbsp; &amp;nbsp; &amp;nbsp; &amp;nbsp; &amp;nbsp; &amp;nbsp; &amp;nbsp; &amp;nbsp; &amp;nbsp; &amp;nbsp; &amp;nbsp; &amp;nbsp; &amp;nbsp; &amp;nbsp; &amp;nbsp; &amp;nbsp; &amp;nbsp; &amp;nbsp; &amp;nbsp; &amp;nbsp; &amp;nbsp; &amp;nbsp; &amp;nbsp; &amp;nbsp; &amp;nbsp; &amp;nbsp; &amp;nbsp; &amp;nbsp; &amp;nbsp; &amp;nbsp; &amp;nbsp; &amp;nbsp; &amp;nbsp;" style="rounded=1;whiteSpace=wrap;html=1;strokeWidth=1;opacity=50;dashed=1;dashPattern=1 1;fillColor=#eeeeee;strokeColor=#36393d;" vertex="1" parent="27J3_kE1SquX3wN85o0Z-275">
          <mxGeometry x="10" y="155" width="370" height="50" as="geometry" />
        </mxCell>
        <mxCell id="27J3_kE1SquX3wN85o0Z-210" value="&lt;font style=&quot;font-size: 15px&quot; face=&quot;Times New Roman&quot;&gt;image-proc&lt;/font&gt;" style="text;html=1;align=center;verticalAlign=middle;resizable=0;points=[];autosize=1;" vertex="1" parent="27J3_kE1SquX3wN85o0Z-275">
          <mxGeometry x="24.4" y="170" width="80" height="20" as="geometry" />
        </mxCell>
        <mxCell id="27J3_kE1SquX3wN85o0Z-211" value="&lt;font style=&quot;font-size: 14px&quot; face=&quot;Times New Roman&quot;&gt;servers&lt;/font&gt;" style="text;html=1;align=center;verticalAlign=middle;resizable=0;points=[];autosize=1;strokeWidth=4;" vertex="1" parent="27J3_kE1SquX3wN85o0Z-275">
          <mxGeometry x="167.00000000000003" y="170" width="60" height="20" as="geometry" />
        </mxCell>
        <mxCell id="27J3_kE1SquX3wN85o0Z-212" value="&lt;font style=&quot;font-size: 14px&quot;&gt;printers&lt;/font&gt;" style="text;html=1;align=center;verticalAlign=middle;resizable=0;points=[];autosize=1;strokeWidth=4;fontFamily=Times New Roman;" vertex="1" parent="27J3_kE1SquX3wN85o0Z-275">
          <mxGeometry x="292" y="170" width="60" height="20" as="geometry" />
        </mxCell>
        <mxCell id="27J3_kE1SquX3wN85o0Z-213" value="&lt;font style=&quot;font-size: 10px&quot; face=&quot;Times New Roman&quot;&gt;CNN&lt;/font&gt;" style="text;html=1;align=center;verticalAlign=middle;resizable=0;points=[];autosize=1;" vertex="1" parent="27J3_kE1SquX3wN85o0Z-275">
          <mxGeometry x="14.400000000000006" y="260" width="40" height="20" as="geometry" />
        </mxCell>
        <mxCell id="27J3_kE1SquX3wN85o0Z-214" value="&lt;font style=&quot;font-size: 10px&quot; face=&quot;Times New Roman&quot;&gt;RCNN&lt;/font&gt;" style="text;html=1;align=center;verticalAlign=middle;resizable=0;points=[];autosize=1;" vertex="1" parent="27J3_kE1SquX3wN85o0Z-275">
          <mxGeometry x="64.4" y="250" width="40" height="20" as="geometry" />
        </mxCell>
        <mxCell id="27J3_kE1SquX3wN85o0Z-215" value="&lt;font style=&quot;font-size: 10px&quot; face=&quot;Times New Roman&quot;&gt;netlab&lt;/font&gt;" style="text;html=1;align=center;verticalAlign=middle;resizable=0;points=[];autosize=1;" vertex="1" parent="27J3_kE1SquX3wN85o0Z-275">
          <mxGeometry x="203.75000000000003" y="252.25" width="40" height="20" as="geometry" />
        </mxCell>
        <mxCell id="27J3_kE1SquX3wN85o0Z-216" value="&lt;font style=&quot;font-size: 10px&quot; face=&quot;Times New Roman&quot;&gt;netwisdom&lt;/font&gt;" style="text;html=1;align=center;verticalAlign=middle;resizable=0;points=[];autosize=1;strokeWidth=4;" vertex="1" parent="27J3_kE1SquX3wN85o0Z-275">
          <mxGeometry x="149.65" y="260" width="60" height="20" as="geometry" />
        </mxCell>
        <mxCell id="27J3_kE1SquX3wN85o0Z-219" value="" style="endArrow=classic;html=1;exitX=0.45;exitY=1.05;exitDx=0;exitDy=0;exitPerimeter=0;dashed=1;" edge="1" parent="27J3_kE1SquX3wN85o0Z-275" source="27J3_kE1SquX3wN85o0Z-210">
          <mxGeometry width="50" height="50" relative="1" as="geometry">
            <mxPoint x="87" y="170" as="sourcePoint" />
            <mxPoint x="34.400000000000006" y="260" as="targetPoint" />
          </mxGeometry>
        </mxCell>
        <mxCell id="27J3_kE1SquX3wN85o0Z-221" value="" style="endArrow=classic;html=1;entryX=0.278;entryY=0;entryDx=0;entryDy=0;entryPerimeter=0;exitX=0.5;exitY=1.2;exitDx=0;exitDy=0;exitPerimeter=0;dashed=1;" edge="1" parent="27J3_kE1SquX3wN85o0Z-275" source="27J3_kE1SquX3wN85o0Z-210" target="27J3_kE1SquX3wN85o0Z-214">
          <mxGeometry width="50" height="50" relative="1" as="geometry">
            <mxPoint x="27" y="190" as="sourcePoint" />
            <mxPoint x="7" y="270" as="targetPoint" />
          </mxGeometry>
        </mxCell>
        <mxCell id="27J3_kE1SquX3wN85o0Z-222" value="" style="endArrow=classic;html=1;dashed=1;" edge="1" parent="27J3_kE1SquX3wN85o0Z-275">
          <mxGeometry width="50" height="50" relative="1" as="geometry">
            <mxPoint x="192.00000000000003" y="190" as="sourcePoint" />
            <mxPoint x="174.4" y="260" as="targetPoint" />
          </mxGeometry>
        </mxCell>
        <mxCell id="27J3_kE1SquX3wN85o0Z-223" value="" style="endArrow=classic;html=1;entryX=0.457;entryY=0;entryDx=0;entryDy=0;entryPerimeter=0;exitX=0.55;exitY=1;exitDx=0;exitDy=0;exitPerimeter=0;dashed=1;" edge="1" parent="27J3_kE1SquX3wN85o0Z-275" source="27J3_kE1SquX3wN85o0Z-211" target="27J3_kE1SquX3wN85o0Z-215">
          <mxGeometry width="50" height="50" relative="1" as="geometry">
            <mxPoint x="47" y="204" as="sourcePoint" />
            <mxPoint x="77.01999999999998" y="240" as="targetPoint" />
          </mxGeometry>
        </mxCell>
        <mxCell id="27J3_kE1SquX3wN85o0Z-224" value="" style="endArrow=classic;html=1;dashed=1;entryX=0.643;entryY=0.387;entryDx=0;entryDy=0;entryPerimeter=0;" edge="1" parent="27J3_kE1SquX3wN85o0Z-275" source="27J3_kE1SquX3wN85o0Z-212" target="27J3_kE1SquX3wN85o0Z-271">
          <mxGeometry width="50" height="50" relative="1" as="geometry">
            <mxPoint x="211.00000000000003" y="200" as="sourcePoint" />
            <mxPoint x="345.80999999999995" y="261.95000000000005" as="targetPoint" />
          </mxGeometry>
        </mxCell>
        <mxCell id="27J3_kE1SquX3wN85o0Z-225" value="" style="endArrow=classic;html=1;entryX=0.272;entryY=0.532;entryDx=0;entryDy=0;entryPerimeter=0;dashed=1;" edge="1" parent="27J3_kE1SquX3wN85o0Z-275" source="27J3_kE1SquX3wN85o0Z-212" target="27J3_kE1SquX3wN85o0Z-271">
          <mxGeometry width="50" height="50" relative="1" as="geometry">
            <mxPoint x="202.00000000000003" y="200" as="sourcePoint" />
            <mxPoint x="319" y="275.75999999999976" as="targetPoint" />
          </mxGeometry>
        </mxCell>
        <mxCell id="27J3_kE1SquX3wN85o0Z-228" value="&lt;font face=&quot;Times New Roman&quot;&gt;&lt;b&gt;Discovery root&lt;/b&gt;&lt;br&gt;e.g. /uofm/discovery&lt;/font&gt;" style="text;html=1;align=center;verticalAlign=middle;resizable=0;points=[];autosize=1;" vertex="1" parent="27J3_kE1SquX3wN85o0Z-275">
          <mxGeometry x="247" y="65" width="110" height="40" as="geometry" />
        </mxCell>
        <mxCell id="27J3_kE1SquX3wN85o0Z-229" value="&lt;font style=&quot;font-size: 15px&quot; face=&quot;Times New Roman&quot;&gt;discovery&lt;/font&gt;" style="text;html=1;align=center;verticalAlign=middle;resizable=0;points=[];autosize=1;strokeWidth=4;" vertex="1" parent="27J3_kE1SquX3wN85o0Z-275">
          <mxGeometry x="167.00000000000003" y="70" width="70" height="20" as="geometry" />
        </mxCell>
        <mxCell id="27J3_kE1SquX3wN85o0Z-233" value="&lt;font face=&quot;Times New Roman&quot;&gt;Fig: NDNSD Namespace Design&amp;nbsp;&lt;/font&gt;" style="text;html=1;align=center;verticalAlign=middle;resizable=0;points=[];autosize=1;" vertex="1" parent="27J3_kE1SquX3wN85o0Z-275">
          <mxGeometry x="117.00000000000003" y="310" width="180" height="20" as="geometry" />
        </mxCell>
        <mxCell id="27J3_kE1SquX3wN85o0Z-260" value="&lt;font style=&quot;font-size: 15px&quot; face=&quot;Times New Roman&quot;&gt;root&lt;/font&gt;" style="text;html=1;align=center;verticalAlign=middle;resizable=0;points=[];autosize=1;fontColor=#33001A;" vertex="1" parent="27J3_kE1SquX3wN85o0Z-275">
          <mxGeometry x="178.00000000000003" width="40" height="20" as="geometry" />
        </mxCell>
        <mxCell id="27J3_kE1SquX3wN85o0Z-265" value="&lt;div&gt;&lt;font face=&quot;Times New Roman&quot;&gt;&lt;b&gt;Root Prefix&lt;/b&gt;&lt;br&gt;&lt;/font&gt;&lt;/div&gt;&lt;div&gt;&lt;font face=&quot;Times New Roman&quot;&gt;e.g. /uofm/&lt;br&gt;&lt;/font&gt;&lt;/div&gt;" style="text;html=1;align=center;verticalAlign=middle;resizable=0;points=[];autosize=1;fontColor=#33001A;" vertex="1" parent="27J3_kE1SquX3wN85o0Z-275">
          <mxGeometry x="242.00000000000003" y="-5" width="70" height="40" as="geometry" />
        </mxCell>
        <mxCell id="27J3_kE1SquX3wN85o0Z-278" value="&lt;font style=&quot;font-size: 10px&quot; face=&quot;Times New Roman&quot;&gt;printer2&lt;/font&gt;" style="text;whiteSpace=wrap;html=1;fontColor=#33001A;" vertex="1" parent="27J3_kE1SquX3wN85o0Z-275">
          <mxGeometry x="302" y="260" width="20" height="20" as="geometry" />
        </mxCell>
        <mxCell id="27J3_kE1SquX3wN85o0Z-279" value="&lt;font style=&quot;font-size: 10px&quot; face=&quot;Times New Roman&quot;&gt;printer1&lt;/font&gt;" style="text;whiteSpace=wrap;html=1;fontColor=#33001A;" vertex="1" parent="27J3_kE1SquX3wN85o0Z-275">
          <mxGeometry x="340" y="250" width="30" height="30" as="geometry" />
        </mxCell>
        <mxCell id="27J3_kE1SquX3wN85o0Z-159" value="&lt;div&gt;&lt;font style=&quot;font-size: 10px&quot;&gt;Request Broadcast&amp;nbsp;&amp;nbsp;&amp;nbsp;&amp;nbsp;&amp;nbsp;&amp;nbsp;&amp;nbsp;&amp;nbsp;&amp;nbsp;&amp;nbsp;&amp;nbsp; &amp;nbsp; &amp;nbsp; &amp;nbsp; &amp;nbsp; &amp;nbsp;&amp;nbsp; &amp;nbsp;&amp;nbsp;&amp;nbsp;&amp;nbsp;&amp;nbsp;&amp;nbsp;&amp;nbsp;&amp;nbsp;&amp;nbsp;&amp;nbsp;&amp;nbsp;&amp;nbsp;&amp;nbsp;&amp;nbsp;&amp;nbsp;&amp;nbsp;&amp;nbsp;&amp;nbsp;&amp;nbsp;&amp;nbsp;&amp;nbsp;&amp;nbsp;&amp;nbsp;&amp;nbsp;&amp;nbsp;&amp;nbsp;&amp;nbsp;&amp;nbsp;&amp;nbsp;&amp;nbsp;&amp;nbsp;&amp;nbsp;&amp;nbsp;&amp;nbsp;&amp;nbsp;&amp;nbsp;&amp;nbsp;&amp;nbsp;&amp;nbsp;&amp;nbsp;&amp;nbsp;&amp;nbsp; &lt;/font&gt;&lt;br&gt;&lt;/div&gt;&lt;div&gt;&lt;br&gt;&lt;/div&gt;" style="rounded=0;whiteSpace=wrap;html=1;dashed=1;strokeColor=none;strokeWidth=1;fillColor=#FFFFFF;gradientColor=none;" vertex="1" parent="1">
          <mxGeometry x="100" y="640" width="405" height="310" as="geometry" />
        </mxCell>
        <mxCell id="27J3_kE1SquX3wN85o0Z-8" value="" style="rounded=0;whiteSpace=wrap;html=1;strokeWidth=1;fillColor=none;gradientColor=none;strokeColor=none;" vertex="1" parent="1">
          <mxGeometry x="80" y="110" width="710" height="440" as="geometry" />
        </mxCell>
        <mxCell id="ROEDN-uirQ6L8P9amswr-1" value="&lt;div&gt;(n1)&lt;br&gt;&lt;/div&gt;&lt;div&gt;NFD&lt;/div&gt;" style="ellipse;whiteSpace=wrap;html=1;fillColor=#d5e8d4;strokeColor=#82b366;" parent="1" vertex="1">
          <mxGeometry x="286" y="259" width="75" height="50" as="geometry" />
        </mxCell>
        <mxCell id="ROEDN-uirQ6L8P9amswr-2" value="(n2)&lt;br&gt;NFD" style="ellipse;whiteSpace=wrap;html=1;fillColor=#d5e8d4;strokeColor=#82b366;" parent="1" vertex="1">
          <mxGeometry x="400" y="259.5" width="75" height="50" as="geometry" />
        </mxCell>
        <mxCell id="ROEDN-uirQ6L8P9amswr-3" value="&lt;div&gt;(n3)&lt;br&gt;&lt;/div&gt;&lt;div&gt;NFD&lt;/div&gt;" style="ellipse;whiteSpace=wrap;html=1;fillColor=#d5e8d4;strokeColor=#82b366;" parent="1" vertex="1">
          <mxGeometry x="486.5" y="190" width="75" height="50" as="geometry" />
        </mxCell>
        <mxCell id="ROEDN-uirQ6L8P9amswr-4" value="(n4)&lt;br&gt;&lt;div&gt;NFD&lt;/div&gt;" style="ellipse;whiteSpace=wrap;html=1;fillColor=#d5e8d4;strokeColor=#82b366;" parent="1" vertex="1">
          <mxGeometry x="491.5" y="314" width="75" height="50" as="geometry" />
        </mxCell>
        <mxCell id="ROEDN-uirQ6L8P9amswr-6" value="&lt;div&gt;&lt;b&gt;NDNSD&amp;nbsp;&lt;/b&gt;&lt;/div&gt;&lt;div&gt;Producer &lt;br&gt;&lt;/div&gt;&lt;div&gt;Application&lt;br&gt;&lt;/div&gt;" style="rounded=1;whiteSpace=wrap;html=1;dashed=1;fillColor=#fff2cc;strokeColor=#d6b656;" parent="1" vertex="1">
          <mxGeometry x="90" y="152" width="80" height="60" as="geometry" />
        </mxCell>
        <mxCell id="ROEDN-uirQ6L8P9amswr-7" value="(s1)&lt;br&gt;&lt;div&gt;sync&lt;/div&gt;" style="rounded=1;whiteSpace=wrap;html=1;fillColor=#dae8fc;strokeColor=#6c8ebf;" parent="1" vertex="1">
          <mxGeometry x="284" y="162" width="80" height="40" as="geometry" />
        </mxCell>
        <mxCell id="ROEDN-uirQ6L8P9amswr-8" value="" style="endArrow=classic;startArrow=classic;html=1;entryX=0.5;entryY=1;entryDx=0;entryDy=0;" parent="1" source="ROEDN-uirQ6L8P9amswr-1" target="ROEDN-uirQ6L8P9amswr-7" edge="1">
          <mxGeometry width="50" height="50" relative="1" as="geometry">
            <mxPoint x="221" y="269" as="sourcePoint" />
            <mxPoint x="271" y="219" as="targetPoint" />
          </mxGeometry>
        </mxCell>
        <mxCell id="ROEDN-uirQ6L8P9amswr-24" value="&lt;div&gt;publish/fetch &lt;br&gt;&lt;/div&gt;&lt;div&gt;sync data&lt;br&gt;&lt;/div&gt;" style="edgeLabel;html=1;align=center;verticalAlign=middle;resizable=0;points=[];" parent="ROEDN-uirQ6L8P9amswr-8" vertex="1" connectable="0">
          <mxGeometry x="0.1333" y="1" relative="1" as="geometry">
            <mxPoint x="1" y="4" as="offset" />
          </mxGeometry>
        </mxCell>
        <mxCell id="ROEDN-uirQ6L8P9amswr-9" value="" style="endArrow=classic;startArrow=classic;html=1;entryX=1;entryY=1;entryDx=0;entryDy=0;exitX=0;exitY=0.5;exitDx=0;exitDy=0;" parent="1" source="ROEDN-uirQ6L8P9amswr-1" target="ROEDN-uirQ6L8P9amswr-6" edge="1">
          <mxGeometry width="50" height="50" relative="1" as="geometry">
            <mxPoint x="325" y="270" as="sourcePoint" />
            <mxPoint x="325" y="210" as="targetPoint" />
          </mxGeometry>
        </mxCell>
        <mxCell id="ROEDN-uirQ6L8P9amswr-43" value="&lt;div&gt;serve &lt;br&gt;&lt;/div&gt;&lt;div&gt;request&lt;/div&gt;" style="edgeLabel;html=1;align=center;verticalAlign=middle;resizable=0;points=[];" parent="ROEDN-uirQ6L8P9amswr-9" vertex="1" connectable="0">
          <mxGeometry x="0.2129" y="2" relative="1" as="geometry">
            <mxPoint x="9.99" y="5.04" as="offset" />
          </mxGeometry>
        </mxCell>
        <mxCell id="ROEDN-uirQ6L8P9amswr-10" value="" style="endArrow=classic;startArrow=classic;html=1;entryX=1;entryY=0.5;entryDx=0;entryDy=0;exitX=0;exitY=0.5;exitDx=0;exitDy=0;" parent="1" source="ROEDN-uirQ6L8P9amswr-7" target="ROEDN-uirQ6L8P9amswr-6" edge="1">
          <mxGeometry width="50" height="50" relative="1" as="geometry">
            <mxPoint x="280" y="300" as="sourcePoint" />
            <mxPoint x="150" y="210" as="targetPoint" />
          </mxGeometry>
        </mxCell>
        <mxCell id="ROEDN-uirQ6L8P9amswr-28" value="register/ publish &lt;br&gt;&lt;div&gt;service&lt;br&gt;&lt;/div&gt;" style="edgeLabel;html=1;align=center;verticalAlign=middle;resizable=0;points=[];" parent="ROEDN-uirQ6L8P9amswr-10" vertex="1" connectable="0">
          <mxGeometry x="0.1789" relative="1" as="geometry">
            <mxPoint x="11" y="-0.41" as="offset" />
          </mxGeometry>
        </mxCell>
        <mxCell id="ROEDN-uirQ6L8P9amswr-11" value="" style="endArrow=classic;startArrow=classic;html=1;entryX=0;entryY=0.5;entryDx=0;entryDy=0;exitX=1;exitY=0.5;exitDx=0;exitDy=0;" parent="1" source="ROEDN-uirQ6L8P9amswr-1" target="ROEDN-uirQ6L8P9amswr-2" edge="1">
          <mxGeometry width="50" height="50" relative="1" as="geometry">
            <mxPoint x="325" y="270" as="sourcePoint" />
            <mxPoint x="325" y="210" as="targetPoint" />
          </mxGeometry>
        </mxCell>
        <mxCell id="ROEDN-uirQ6L8P9amswr-12" value="" style="endArrow=classic;startArrow=classic;html=1;entryX=0.156;entryY=0.967;entryDx=0;entryDy=0;exitX=1;exitY=0;exitDx=0;exitDy=0;entryPerimeter=0;" parent="1" source="ROEDN-uirQ6L8P9amswr-2" target="ROEDN-uirQ6L8P9amswr-3" edge="1">
          <mxGeometry width="50" height="50" relative="1" as="geometry">
            <mxPoint x="250" y="301.5" as="sourcePoint" />
            <mxPoint x="410" y="301.5" as="targetPoint" />
          </mxGeometry>
        </mxCell>
        <mxCell id="ROEDN-uirQ6L8P9amswr-13" value="" style="endArrow=classic;startArrow=classic;html=1;entryX=0;entryY=0;entryDx=0;entryDy=0;exitX=1;exitY=1;exitDx=0;exitDy=0;" parent="1" source="ROEDN-uirQ6L8P9amswr-2" target="ROEDN-uirQ6L8P9amswr-4" edge="1">
          <mxGeometry width="50" height="50" relative="1" as="geometry">
            <mxPoint x="486.81980515339455" y="280.28679656440363" as="sourcePoint" />
            <mxPoint x="554.04" y="209.51999999999998" as="targetPoint" />
          </mxGeometry>
        </mxCell>
        <mxCell id="ROEDN-uirQ6L8P9amswr-14" value="&lt;div&gt;NDNSD &lt;br&gt;&lt;/div&gt;&lt;div&gt;Application&lt;br&gt;&lt;/div&gt;" style="rounded=1;whiteSpace=wrap;html=1;dashed=1;" parent="1" vertex="1">
          <mxGeometry x="484" y="121" width="80" height="40" as="geometry" />
        </mxCell>
        <mxCell id="ROEDN-uirQ6L8P9amswr-15" value="&lt;div&gt;(s2)&lt;br&gt;&lt;/div&gt;&lt;div&gt;sync&lt;/div&gt;" style="rounded=1;whiteSpace=wrap;html=1;dashed=1;fillColor=#dae8fc;strokeColor=#6c8ebf;" parent="1" vertex="1">
          <mxGeometry x="490" y="435.25" width="78" height="39" as="geometry" />
        </mxCell>
        <mxCell id="ROEDN-uirQ6L8P9amswr-16" value="" style="endArrow=classic;startArrow=classic;html=1;entryX=0.5;entryY=1;entryDx=0;entryDy=0;exitX=0.5;exitY=0;exitDx=0;exitDy=0;" parent="1" source="ROEDN-uirQ6L8P9amswr-3" target="ROEDN-uirQ6L8P9amswr-14" edge="1">
          <mxGeometry width="50" height="50" relative="1" as="geometry">
            <mxPoint x="238.5" y="271.5" as="sourcePoint" />
            <mxPoint x="238.5" y="211.5" as="targetPoint" />
          </mxGeometry>
        </mxCell>
        <mxCell id="ROEDN-uirQ6L8P9amswr-17" value="" style="endArrow=classic;startArrow=classic;html=1;entryX=0.5;entryY=1;entryDx=0;entryDy=0;exitX=0.5;exitY=0;exitDx=0;exitDy=0;" parent="1" source="ROEDN-uirQ6L8P9amswr-15" target="ROEDN-uirQ6L8P9amswr-4" edge="1">
          <mxGeometry width="50" height="50" relative="1" as="geometry">
            <mxPoint x="438.31980515339455" y="252.78679656440352" as="sourcePoint" />
            <mxPoint x="505.53999999999996" y="212.01999999999998" as="targetPoint" />
          </mxGeometry>
        </mxCell>
        <mxCell id="ROEDN-uirQ6L8P9amswr-25" value="User" style="rounded=0;whiteSpace=wrap;html=1;dashed=1;strokeWidth=3;fillColor=#f5f5f5;strokeColor=#666666;fontColor=#333333;fontStyle=1" parent="1" vertex="1">
          <mxGeometry x="90" y="299.5" width="80" height="40" as="geometry" />
        </mxCell>
        <mxCell id="ROEDN-uirQ6L8P9amswr-26" value="" style="endArrow=classic;startArrow=classic;html=1;entryX=0.5;entryY=1;entryDx=0;entryDy=0;exitX=0.5;exitY=0;exitDx=0;exitDy=0;startFill=1;endFill=1;" parent="1" source="ROEDN-uirQ6L8P9amswr-25" target="ROEDN-uirQ6L8P9amswr-6" edge="1">
          <mxGeometry width="50" height="50" relative="1" as="geometry">
            <mxPoint x="275" y="190" as="sourcePoint" />
            <mxPoint x="180" y="190" as="targetPoint" />
          </mxGeometry>
        </mxCell>
        <mxCell id="ROEDN-uirQ6L8P9amswr-27" value="&lt;div&gt;advertise service/&lt;/div&gt;&lt;div&gt;receive callback&lt;/div&gt;" style="edgeLabel;html=1;align=center;verticalAlign=middle;resizable=0;points=[];" parent="ROEDN-uirQ6L8P9amswr-26" vertex="1" connectable="0">
          <mxGeometry relative="1" as="geometry">
            <mxPoint as="offset" />
          </mxGeometry>
        </mxCell>
        <mxCell id="ROEDN-uirQ6L8P9amswr-34" style="edgeStyle=orthogonalEdgeStyle;rounded=0;orthogonalLoop=1;jettySize=auto;html=1;exitX=0.5;exitY=1;exitDx=0;exitDy=0;startArrow=none;startFill=0;endArrow=classic;endFill=1;entryX=0.397;entryY=0.038;entryDx=0;entryDy=0;entryPerimeter=0;" parent="1" edge="1" target="ROEDN-uirQ6L8P9amswr-31">
          <mxGeometry relative="1" as="geometry">
            <mxPoint x="710.5" y="344.5" as="sourcePoint" />
            <mxPoint x="710.5" y="412.5" as="targetPoint" />
          </mxGeometry>
        </mxCell>
        <mxCell id="ROEDN-uirQ6L8P9amswr-36" value="&lt;div&gt;request &lt;br&gt;&lt;/div&gt;&lt;div&gt;service&lt;/div&gt;&lt;div&gt;(1)&lt;br&gt;&lt;/div&gt;" style="edgeLabel;html=1;align=center;verticalAlign=middle;resizable=0;points=[];" parent="ROEDN-uirQ6L8P9amswr-34" vertex="1" connectable="0">
          <mxGeometry x="-0.1176" relative="1" as="geometry">
            <mxPoint x="-13" as="offset" />
          </mxGeometry>
        </mxCell>
        <mxCell id="ROEDN-uirQ6L8P9amswr-30" value="User" style="rounded=0;whiteSpace=wrap;html=1;dashed=1;strokeWidth=3;fillColor=#f5f5f5;strokeColor=#666666;fontColor=#333333;fontStyle=1" parent="1" vertex="1">
          <mxGeometry x="677.5" y="304.5" width="80" height="40" as="geometry" />
        </mxCell>
        <mxCell id="ROEDN-uirQ6L8P9amswr-31" value="&lt;div&gt;&lt;br&gt;&lt;/div&gt;&lt;div&gt;NDNSD &lt;br&gt;&lt;/div&gt;&lt;div&gt;(lib)&lt;/div&gt;&lt;div&gt;&lt;br&gt;&lt;/div&gt;" style="rounded=1;whiteSpace=wrap;html=1;dashed=1;fillColor=#fff2cc;strokeColor=#d6b656;" parent="1" vertex="1">
          <mxGeometry x="678.5" y="419.5" width="78" height="39" as="geometry" />
        </mxCell>
        <mxCell id="ROEDN-uirQ6L8P9amswr-32" value="" style="endArrow=classic;startArrow=classic;html=1;entryX=1;entryY=1;entryDx=0;entryDy=0;exitX=0;exitY=0;exitDx=0;exitDy=0;" parent="1" source="ROEDN-uirQ6L8P9amswr-31" target="ROEDN-uirQ6L8P9amswr-4" edge="1">
          <mxGeometry width="50" height="50" relative="1" as="geometry">
            <mxPoint x="539" y="425" as="sourcePoint" />
            <mxPoint x="539" y="374" as="targetPoint" />
          </mxGeometry>
        </mxCell>
        <mxCell id="ROEDN-uirQ6L8P9amswr-35" value="&lt;div&gt;fetch &lt;br&gt;&lt;/div&gt;&lt;div&gt;service info&lt;/div&gt;&lt;div&gt;(3)&lt;br&gt;&lt;/div&gt;" style="edgeLabel;html=1;align=center;verticalAlign=middle;resizable=0;points=[];" parent="ROEDN-uirQ6L8P9amswr-32" vertex="1" connectable="0">
          <mxGeometry x="0.1187" y="-2" relative="1" as="geometry">
            <mxPoint as="offset" />
          </mxGeometry>
        </mxCell>
        <mxCell id="ROEDN-uirQ6L8P9amswr-33" value="" style="endArrow=classic;startArrow=classic;html=1;entryX=0;entryY=0.5;entryDx=0;entryDy=0;exitX=1;exitY=0.5;exitDx=0;exitDy=0;" parent="1" source="ROEDN-uirQ6L8P9amswr-15" target="27J3_kE1SquX3wN85o0Z-9" edge="1">
          <mxGeometry width="50" height="50" relative="1" as="geometry">
            <mxPoint x="539" y="432" as="sourcePoint" />
            <mxPoint x="539" y="381" as="targetPoint" />
          </mxGeometry>
        </mxCell>
        <mxCell id="ROEDN-uirQ6L8P9amswr-37" value="fetch service &lt;br&gt;&lt;div&gt;names&lt;/div&gt;&lt;div&gt;(2)&lt;br&gt;&lt;/div&gt;" style="edgeLabel;html=1;align=center;verticalAlign=middle;resizable=0;points=[];" parent="ROEDN-uirQ6L8P9amswr-33" vertex="1" connectable="0">
          <mxGeometry x="0.0376" y="-2" relative="1" as="geometry">
            <mxPoint x="-5.5" y="-2" as="offset" />
          </mxGeometry>
        </mxCell>
        <mxCell id="ROEDN-uirQ6L8P9amswr-38" style="edgeStyle=orthogonalEdgeStyle;rounded=0;orthogonalLoop=1;jettySize=auto;html=1;exitX=0.75;exitY=0;exitDx=0;exitDy=0;startArrow=none;startFill=0;endArrow=classic;endFill=1;entryX=0.75;entryY=1;entryDx=0;entryDy=0;" parent="1" source="ROEDN-uirQ6L8P9amswr-31" target="ROEDN-uirQ6L8P9amswr-30" edge="1">
          <mxGeometry relative="1" as="geometry">
            <mxPoint x="720.5" y="354.5" as="sourcePoint" />
            <mxPoint x="720.5" y="422.5" as="targetPoint" />
          </mxGeometry>
        </mxCell>
        <mxCell id="ROEDN-uirQ6L8P9amswr-39" value="&lt;div&gt;receive&lt;br&gt;&lt;/div&gt;&lt;div&gt;service info&lt;br&gt;&lt;/div&gt;&lt;div&gt;(4)&lt;br&gt;&lt;/div&gt;" style="edgeLabel;html=1;align=center;verticalAlign=middle;resizable=0;points=[];" parent="ROEDN-uirQ6L8P9amswr-38" vertex="1" connectable="0">
          <mxGeometry x="-0.1176" relative="1" as="geometry">
            <mxPoint x="10.5" y="0.5" as="offset" />
          </mxGeometry>
        </mxCell>
        <mxCell id="ROEDN-uirQ6L8P9amswr-42" value="Numbering shows the ordering of &lt;br&gt;the service discovery process" style="text;html=1;align=center;verticalAlign=middle;resizable=0;points=[];autosize=1;" parent="1" vertex="1">
          <mxGeometry x="517.5" y="510" width="190" height="30" as="geometry" />
        </mxCell>
        <mxCell id="27J3_kE1SquX3wN85o0Z-9" value="&lt;div&gt;&lt;b&gt;NDNSD&amp;nbsp;&lt;/b&gt;&lt;/div&gt;&lt;div&gt;Consumer&lt;br&gt;&lt;/div&gt;&lt;div&gt;Application&lt;br&gt;&lt;/div&gt;" style="rounded=1;whiteSpace=wrap;html=1;dashed=1;fillColor=#fff2cc;strokeColor=#d6b656;" vertex="1" parent="1">
          <mxGeometry x="678.5" y="419.5" width="80" height="70.5" as="geometry" />
        </mxCell>
        <mxCell id="27J3_kE1SquX3wN85o0Z-12" value="" style="verticalLabelPosition=bottom;html=1;verticalAlign=top;align=center;strokeColor=none;fillColor=#00BEF2;shape=mxgraph.azure.user;" vertex="1" parent="1">
          <mxGeometry x="107.5" y="760" width="47.5" height="50" as="geometry" />
        </mxCell>
        <mxCell id="27J3_kE1SquX3wN85o0Z-14" value="" style="html=1;verticalLabelPosition=bottom;align=center;labelBackgroundColor=#ffffff;verticalAlign=top;strokeWidth=2;strokeColor=#33001A;shadow=0;dashed=0;shape=mxgraph.ios7.icons.home;fillColor=#FFFFFF;gradientColor=none;" vertex="1" parent="1">
          <mxGeometry x="271.75" y="735" width="103.5" height="110" as="geometry" />
        </mxCell>
        <mxCell id="27J3_kE1SquX3wN85o0Z-18" value="" style="points=[];aspect=fixed;html=1;align=center;shadow=0;dashed=0;image;image=img/lib/allied_telesis/computer_and_terminals/Personal_Computer.svg;strokeColor=#33001A;strokeWidth=1;fillColor=#FFFFFF;gradientColor=none;" vertex="1" parent="1">
          <mxGeometry x="415.37" y="890" width="29.51" height="40" as="geometry" />
        </mxCell>
        <mxCell id="27J3_kE1SquX3wN85o0Z-19" value="" style="aspect=fixed;html=1;points=[];align=center;image;fontSize=12;image=img/lib/mscae/App_Service_Mobile_App.svg;strokeColor=#33001A;strokeWidth=1;fillColor=#FFFFFF;gradientColor=none;" vertex="1" parent="1">
          <mxGeometry x="299.9" y="891" width="20.4" height="30" as="geometry" />
        </mxCell>
        <mxCell id="27J3_kE1SquX3wN85o0Z-22" value="" style="shape=image;html=1;verticalAlign=top;verticalLabelPosition=bottom;labelBackgroundColor=#ffffff;imageAspect=0;aspect=fixed;image=https://cdn0.iconfinder.com/data/icons/doodle-audio-video-game/91/Audio_-_Video_-_Game_56-128.png;strokeColor=#33001A;strokeWidth=1;fillColor=#FFFFFF;gradientColor=none;" vertex="1" parent="1">
          <mxGeometry x="457.5" y="800" width="40" height="40" as="geometry" />
        </mxCell>
        <mxCell id="27J3_kE1SquX3wN85o0Z-23" value="" style="endArrow=classic;html=1;" edge="1" parent="1">
          <mxGeometry width="50" height="50" relative="1" as="geometry">
            <mxPoint x="160" y="796" as="sourcePoint" />
            <mxPoint x="270" y="797" as="targetPoint" />
          </mxGeometry>
        </mxCell>
        <mxCell id="27J3_kE1SquX3wN85o0Z-24" value="" style="endArrow=classic;html=1;exitX=0.617;exitY=0.345;exitDx=0;exitDy=0;exitPerimeter=0;" edge="1" parent="1" source="27J3_kE1SquX3wN85o0Z-159" target="27J3_kE1SquX3wN85o0Z-163">
          <mxGeometry width="50" height="50" relative="1" as="geometry">
            <mxPoint x="190.4" y="690" as="sourcePoint" />
            <mxPoint x="390" y="680" as="targetPoint" />
          </mxGeometry>
        </mxCell>
        <mxCell id="27J3_kE1SquX3wN85o0Z-25" value="" style="endArrow=classic;html=1;entryX=0.881;entryY=0.368;entryDx=0;entryDy=0;entryPerimeter=0;" edge="1" parent="1" source="27J3_kE1SquX3wN85o0Z-14" target="27J3_kE1SquX3wN85o0Z-159">
          <mxGeometry width="50" height="50" relative="1" as="geometry">
            <mxPoint x="344.98849999999993" y="734.95" as="sourcePoint" />
            <mxPoint x="457.5" y="727.1428571428571" as="targetPoint" />
          </mxGeometry>
        </mxCell>
        <mxCell id="27J3_kE1SquX3wN85o0Z-26" value="" style="endArrow=classic;html=1;" edge="1" parent="1">
          <mxGeometry width="50" height="50" relative="1" as="geometry">
            <mxPoint x="313.26" y="845" as="sourcePoint" />
            <mxPoint x="313.26" y="885" as="targetPoint" />
          </mxGeometry>
        </mxCell>
        <mxCell id="27J3_kE1SquX3wN85o0Z-27" value="" style="endArrow=classic;html=1;" edge="1" parent="1">
          <mxGeometry width="50" height="50" relative="1" as="geometry">
            <mxPoint x="380" y="810" as="sourcePoint" />
            <mxPoint x="451" y="810" as="targetPoint" />
          </mxGeometry>
        </mxCell>
        <mxCell id="27J3_kE1SquX3wN85o0Z-29" value="" style="endArrow=classic;html=1;entryX=0.785;entryY=0.797;entryDx=0;entryDy=0;entryPerimeter=0;exitX=0.664;exitY=0.642;exitDx=0;exitDy=0;exitPerimeter=0;" edge="1" parent="1" source="27J3_kE1SquX3wN85o0Z-159" target="27J3_kE1SquX3wN85o0Z-159">
          <mxGeometry width="50" height="50" relative="1" as="geometry">
            <mxPoint x="340" y="840" as="sourcePoint" />
            <mxPoint x="380" y="890" as="targetPoint" />
          </mxGeometry>
        </mxCell>
        <mxCell id="27J3_kE1SquX3wN85o0Z-34" value="&lt;b&gt;My Home&lt;/b&gt;" style="text;html=1;align=center;verticalAlign=middle;resizable=0;points=[];autosize=1;" vertex="1" parent="1">
          <mxGeometry x="288.5" y="780" width="70" height="20" as="geometry" />
        </mxCell>
        <mxCell id="27J3_kE1SquX3wN85o0Z-93" value="" style="shape=image;html=1;verticalAlign=top;verticalLabelPosition=bottom;labelBackgroundColor=#ffffff;imageAspect=0;aspect=fixed;image=https://cdn4.iconfinder.com/data/icons/logos-and-brands/512/272_Raspberry_Pi_logo-128.png;dashed=1;strokeColor=#33001A;strokeWidth=1;fillColor=#FFFFFF;gradientColor=none;" vertex="1" parent="1">
          <mxGeometry x="458.13" y="720" width="44" height="44" as="geometry" />
        </mxCell>
        <mxCell id="27J3_kE1SquX3wN85o0Z-144" value="Consumer" style="text;html=1;align=center;verticalAlign=middle;resizable=0;points=[];autosize=1;" vertex="1" parent="1">
          <mxGeometry x="95" y="810" width="70" height="20" as="geometry" />
        </mxCell>
        <mxCell id="27J3_kE1SquX3wN85o0Z-145" value="Computer" style="text;html=1;align=center;verticalAlign=middle;resizable=0;points=[];autosize=1;" vertex="1" parent="1">
          <mxGeometry x="354.35" y="930" width="70" height="20" as="geometry" />
        </mxCell>
        <mxCell id="27J3_kE1SquX3wN85o0Z-146" value="Speakers" style="text;html=1;align=center;verticalAlign=middle;resizable=0;points=[];autosize=1;" vertex="1" parent="1">
          <mxGeometry x="439.88" y="840" width="70" height="20" as="geometry" />
        </mxCell>
        <mxCell id="27J3_kE1SquX3wN85o0Z-147" value="Pi" style="text;html=1;align=center;verticalAlign=middle;resizable=0;points=[];autosize=1;" vertex="1" parent="1">
          <mxGeometry x="465.13" y="760" width="30" height="20" as="geometry" />
        </mxCell>
        <mxCell id="27J3_kE1SquX3wN85o0Z-148" value="Thermostat" style="text;html=1;align=center;verticalAlign=middle;resizable=0;points=[];autosize=1;" vertex="1" parent="1">
          <mxGeometry x="397" y="692" width="80" height="20" as="geometry" />
        </mxCell>
        <mxCell id="27J3_kE1SquX3wN85o0Z-149" value="Mobile App" style="text;html=1;align=center;verticalAlign=middle;resizable=0;points=[];autosize=1;" vertex="1" parent="1">
          <mxGeometry x="273.67" y="932" width="80" height="20" as="geometry" />
        </mxCell>
        <mxCell id="27J3_kE1SquX3wN85o0Z-162" value="" style="shape=image;html=1;verticalAlign=top;verticalLabelPosition=bottom;labelBackgroundColor=#ffffff;imageAspect=0;aspect=fixed;image=https://cdn2.iconfinder.com/data/icons/doing-housework-part-1/64/house-17-128.png;dashed=1;strokeColor=#FFFF99;strokeWidth=1;fillColor=#FFFFFF;gradientColor=none;" vertex="1" parent="1">
          <mxGeometry x="306.5" y="647" width="40" height="40" as="geometry" />
        </mxCell>
        <mxCell id="27J3_kE1SquX3wN85o0Z-163" value="" style="outlineConnect=0;fontColor=#232F3E;gradientColor=none;fillColor=#277116;strokeColor=none;dashed=0;verticalLabelPosition=bottom;verticalAlign=top;align=center;html=1;fontSize=12;fontStyle=0;aspect=fixed;pointerEvents=1;shape=mxgraph.aws4.thermostat;" vertex="1" parent="1">
          <mxGeometry x="406" y="663.5" width="26.5" height="26.5" as="geometry" />
        </mxCell>
        <mxCell id="27J3_kE1SquX3wN85o0Z-165" value="" style="endArrow=classic;html=1;exitX=0.538;exitY=0.297;exitDx=0;exitDy=0;exitPerimeter=0;" edge="1" parent="1">
          <mxGeometry width="50" height="50" relative="1" as="geometry">
            <mxPoint x="324.8899999999999" y="732.0700000000002" as="sourcePoint" />
            <mxPoint x="325" y="685" as="targetPoint" />
          </mxGeometry>
        </mxCell>
        <mxCell id="27J3_kE1SquX3wN85o0Z-166" value="Refrigerator" style="text;whiteSpace=wrap;html=1;" vertex="1" parent="1">
          <mxGeometry x="245.51999999999998" y="670" width="80" height="30" as="geometry" />
        </mxCell>
        <mxCell id="27J3_kE1SquX3wN85o0Z-172" value="" style="endArrow=none;html=1;exitX=1;exitY=0.5;exitDx=0;exitDy=0;dashed=1;shadow=0;fontColor=#E6E6E6;strokeColor=#E6E6E6;" edge="1" parent="1">
          <mxGeometry width="50" height="50" relative="1" as="geometry">
            <mxPoint x="342.5" y="667" as="sourcePoint" />
            <mxPoint x="402.0305377720872" y="674.9783194952283" as="targetPoint" />
          </mxGeometry>
        </mxCell>
        <mxCell id="27J3_kE1SquX3wN85o0Z-173" value="" style="endArrow=none;html=1;exitX=0.367;exitY=-0.02;exitDx=0;exitDy=0;dashed=1;exitPerimeter=0;entryX=0.273;entryY=0.95;entryDx=0;entryDy=0;entryPerimeter=0;strokeColor=#E6E6E6;" edge="1" parent="1" source="27J3_kE1SquX3wN85o0Z-18" target="27J3_kE1SquX3wN85o0Z-146">
          <mxGeometry width="50" height="50" relative="1" as="geometry">
            <mxPoint x="352.5" y="677" as="sourcePoint" />
            <mxPoint x="412.0305377720872" y="684.9783194952283" as="targetPoint" />
          </mxGeometry>
        </mxCell>
        <mxCell id="27J3_kE1SquX3wN85o0Z-174" value="" style="endArrow=none;html=1;exitX=1.172;exitY=0.313;exitDx=0;exitDy=0;dashed=1;exitPerimeter=0;entryX=0.857;entryY=0.619;entryDx=0;entryDy=0;entryPerimeter=0;strokeColor=#E6E6E6;" edge="1" parent="1" source="27J3_kE1SquX3wN85o0Z-19" target="27J3_kE1SquX3wN85o0Z-159">
          <mxGeometry width="50" height="50" relative="1" as="geometry">
            <mxPoint x="328.21016999999983" y="891" as="sourcePoint" />
            <mxPoint x="361.0000000000002" y="860.8" as="targetPoint" />
          </mxGeometry>
        </mxCell>
        <mxCell id="27J3_kE1SquX3wN85o0Z-195" value="" style="group" vertex="1" connectable="0" parent="1">
          <mxGeometry x="120" y="1430" width="395" height="460" as="geometry" />
        </mxCell>
        <mxCell id="27J3_kE1SquX3wN85o0Z-196" value="" style="group" vertex="1" connectable="0" parent="27J3_kE1SquX3wN85o0Z-195">
          <mxGeometry x="-40" y="-10" width="430" height="360" as="geometry" />
        </mxCell>
        <mxCell id="27J3_kE1SquX3wN85o0Z-197" value="" style="rounded=0;whiteSpace=wrap;html=1;strokeWidth=1;strokeColor=none;" vertex="1" parent="27J3_kE1SquX3wN85o0Z-196">
          <mxGeometry width="430" height="360" as="geometry" />
        </mxCell>
        <mxCell id="27J3_kE1SquX3wN85o0Z-198" value="&lt;font style=&quot;font-size: 14px&quot;&gt;G1&lt;/font&gt;" style="ellipse;whiteSpace=wrap;html=1;aspect=fixed;fillColor=#d5e8d4;strokeColor=#82b366;" vertex="1" parent="27J3_kE1SquX3wN85o0Z-195">
          <mxGeometry x="70" y="30" width="60" height="60" as="geometry" />
        </mxCell>
        <mxCell id="27J3_kE1SquX3wN85o0Z-199" value="&lt;span style=&quot;font-size: 14px&quot;&gt;G3&lt;/span&gt;" style="ellipse;whiteSpace=wrap;html=1;aspect=fixed;fillColor=#d5e8d4;strokeColor=#82b366;" vertex="1" parent="27J3_kE1SquX3wN85o0Z-195">
          <mxGeometry x="260" y="180" width="60" height="60" as="geometry" />
        </mxCell>
        <mxCell id="27J3_kE1SquX3wN85o0Z-200" value="&lt;span style=&quot;font-size: 14px&quot;&gt;G2&lt;/span&gt;" style="ellipse;whiteSpace=wrap;html=1;aspect=fixed;fillColor=#d5e8d4;strokeColor=#82b366;" vertex="1" parent="27J3_kE1SquX3wN85o0Z-195">
          <mxGeometry x="210" y="60" width="60" height="60" as="geometry" />
        </mxCell>
        <mxCell id="27J3_kE1SquX3wN85o0Z-201" value="/discover/printer" style="text;html=1;align=center;verticalAlign=middle;resizable=0;points=[];autosize=1;" vertex="1" parent="27J3_kE1SquX3wN85o0Z-195">
          <mxGeometry x="60" width="100" height="20" as="geometry" />
        </mxCell>
        <mxCell id="27J3_kE1SquX3wN85o0Z-202" value="/discovery/sensor" style="text;html=1;align=center;verticalAlign=middle;resizable=0;points=[];autosize=1;" vertex="1" parent="27J3_kE1SquX3wN85o0Z-195">
          <mxGeometry x="210" y="30" width="110" height="20" as="geometry" />
        </mxCell>
        <mxCell id="27J3_kE1SquX3wN85o0Z-203" value="/discovery/gamer-001" style="text;html=1;align=center;verticalAlign=middle;resizable=0;points=[];autosize=1;" vertex="1" parent="27J3_kE1SquX3wN85o0Z-195">
          <mxGeometry x="230" y="150" width="130" height="20" as="geometry" />
        </mxCell>
        <mxCell id="27J3_kE1SquX3wN85o0Z-204" value="&lt;span style=&quot;font-size: 14px&quot;&gt;C1&lt;/span&gt;" style="ellipse;whiteSpace=wrap;html=1;aspect=fixed;fillColor=#dae8fc;strokeColor=#6c8ebf;" vertex="1" parent="27J3_kE1SquX3wN85o0Z-195">
          <mxGeometry x="10" y="210" width="60" height="60" as="geometry" />
        </mxCell>
        <mxCell id="27J3_kE1SquX3wN85o0Z-205" value="G = Sync Group.&amp;nbsp;&lt;br&gt;each sync group can contain&amp;nbsp;&lt;br&gt;one or more producers {P1, P2 ...}" style="text;html=1;align=center;verticalAlign=middle;resizable=0;points=[];autosize=1;" vertex="1" parent="27J3_kE1SquX3wN85o0Z-195">
          <mxGeometry x="195" y="270" width="200" height="50" as="geometry" />
        </mxCell>
        <mxCell id="27J3_kE1SquX3wN85o0Z-206" value="" style="endArrow=classic;html=1;" edge="1" parent="27J3_kE1SquX3wN85o0Z-195">
          <mxGeometry width="50" height="50" relative="1" as="geometry">
            <mxPoint x="60" y="200" as="sourcePoint" />
            <mxPoint x="90" y="120" as="targetPoint" />
          </mxGeometry>
        </mxCell>
        <mxCell id="27J3_kE1SquX3wN85o0Z-207" value="" style="endArrow=classic;html=1;" edge="1" parent="27J3_kE1SquX3wN85o0Z-195">
          <mxGeometry width="50" height="50" relative="1" as="geometry">
            <mxPoint x="70" y="220" as="sourcePoint" />
            <mxPoint x="160" y="140" as="targetPoint" />
          </mxGeometry>
        </mxCell>
        <mxCell id="27J3_kE1SquX3wN85o0Z-208" value="" style="endArrow=classic;html=1;" edge="1" parent="27J3_kE1SquX3wN85o0Z-195">
          <mxGeometry width="50" height="50" relative="1" as="geometry">
            <mxPoint x="80" y="230" as="sourcePoint" />
            <mxPoint x="170" y="210" as="targetPoint" />
          </mxGeometry>
        </mxCell>
        <mxCell id="27J3_kE1SquX3wN85o0Z-209" value="Consumer" style="text;html=1;align=center;verticalAlign=middle;resizable=0;points=[];autosize=1;" vertex="1" parent="27J3_kE1SquX3wN85o0Z-195">
          <mxGeometry y="280" width="70" height="20" as="geometry" />
        </mxCell>
        <mxCell id="27J3_kE1SquX3wN85o0Z-230" value="&lt;span style=&quot;font-size: 13px&quot;&gt;&lt;font style=&quot;font-size: 13px&quot;&gt;&lt;br&gt;&lt;/font&gt;&lt;/span&gt;" style="text;html=1;align=center;verticalAlign=middle;resizable=0;points=[];autosize=1;" vertex="1" parent="1">
          <mxGeometry x="62.6" y="1170" width="20" height="20" as="geometry" />
        </mxCell>
        <mxCell id="27J3_kE1SquX3wN85o0Z-234" value="" style="group" vertex="1" connectable="0" parent="1">
          <mxGeometry x="560" y="570" width="460" height="390" as="geometry" />
        </mxCell>
        <mxCell id="27J3_kE1SquX3wN85o0Z-160" value="" style="rounded=0;whiteSpace=wrap;html=1;dashed=1;strokeColor=none;strokeWidth=1;fillColor=#FFFFFF;gradientColor=none;" vertex="1" parent="27J3_kE1SquX3wN85o0Z-234">
          <mxGeometry width="460" height="390" as="geometry" />
        </mxCell>
        <mxCell id="27J3_kE1SquX3wN85o0Z-42" value="" style="shape=image;html=1;verticalAlign=top;verticalLabelPosition=bottom;labelBackgroundColor=#ffffff;imageAspect=0;aspect=fixed;image=https://cdn0.iconfinder.com/data/icons/doodle-audio-video-game/91/Audio_-_Video_-_Game_56-128.png;strokeColor=#33001A;strokeWidth=1;fillColor=#FFFFFF;gradientColor=none;" vertex="1" parent="27J3_kE1SquX3wN85o0Z-234">
          <mxGeometry x="351.5" y="145" width="40" height="40" as="geometry" />
        </mxCell>
        <mxCell id="27J3_kE1SquX3wN85o0Z-44" value="" style="endArrow=classic;html=1;entryX=0.533;entryY=0.128;entryDx=0;entryDy=0;exitX=0.583;exitY=0.015;exitDx=0;exitDy=0;exitPerimeter=0;entryPerimeter=0;" edge="1" parent="27J3_kE1SquX3wN85o0Z-234" source="27J3_kE1SquX3wN85o0Z-51" target="27J3_kE1SquX3wN85o0Z-160">
          <mxGeometry width="50" height="50" relative="1" as="geometry">
            <mxPoint x="234.98849999999993" y="104.95000000000005" as="sourcePoint" />
            <mxPoint x="290" y="60" as="targetPoint" />
          </mxGeometry>
        </mxCell>
        <mxCell id="27J3_kE1SquX3wN85o0Z-47" value="" style="endArrow=classic;html=1;" edge="1" parent="27J3_kE1SquX3wN85o0Z-234">
          <mxGeometry width="50" height="50" relative="1" as="geometry">
            <mxPoint x="297" y="164.5999999999999" as="sourcePoint" />
            <mxPoint x="350" y="165" as="targetPoint" />
          </mxGeometry>
        </mxCell>
        <mxCell id="27J3_kE1SquX3wN85o0Z-48" value="" style="endArrow=classic;html=1;entryX=0.463;entryY=0.674;entryDx=0;entryDy=0;entryPerimeter=0;" edge="1" parent="27J3_kE1SquX3wN85o0Z-234" target="27J3_kE1SquX3wN85o0Z-160">
          <mxGeometry width="50" height="50" relative="1" as="geometry">
            <mxPoint x="212.93" y="215.5" as="sourcePoint" />
            <mxPoint x="212.93" y="255.5" as="targetPoint" />
          </mxGeometry>
        </mxCell>
        <mxCell id="27J3_kE1SquX3wN85o0Z-49" value="" style="endArrow=classic;html=1;exitX=0.607;exitY=0.562;exitDx=0;exitDy=0;exitPerimeter=0;" edge="1" parent="27J3_kE1SquX3wN85o0Z-234">
          <mxGeometry width="50" height="50" relative="1" as="geometry">
            <mxPoint x="278.22" y="212.17999999999984" as="sourcePoint" />
            <mxPoint x="333.5" y="246.53228173147477" as="targetPoint" />
          </mxGeometry>
        </mxCell>
        <mxCell id="27J3_kE1SquX3wN85o0Z-51" value="&lt;b&gt;Dunn Hall&lt;/b&gt;" style="points=[];aspect=fixed;html=1;align=center;shadow=0;dashed=0;image;image=img/lib/allied_telesis/buildings/Building_Cluster.svg;strokeColor=#33001A;strokeWidth=1;fillColor=#FFFFFF;gradientColor=none;" vertex="1" parent="27J3_kE1SquX3wN85o0Z-234">
          <mxGeometry x="179.72000000000003" y="114.5" width="110.28" height="101" as="geometry" />
        </mxCell>
        <mxCell id="27J3_kE1SquX3wN85o0Z-98" value="" style="pointerEvents=1;shadow=0;dashed=0;html=1;strokeColor=none;fillColor=#505050;labelPosition=center;verticalLabelPosition=bottom;verticalAlign=top;outlineConnect=0;align=center;shape=mxgraph.office.servers.datacenter;" vertex="1" parent="27J3_kE1SquX3wN85o0Z-234">
          <mxGeometry x="334.5" y="243.5" width="53" height="53" as="geometry" />
        </mxCell>
        <mxCell id="27J3_kE1SquX3wN85o0Z-118" value="Servers" style="text;html=1;align=center;verticalAlign=middle;resizable=0;points=[];autosize=1;" vertex="1" parent="27J3_kE1SquX3wN85o0Z-234">
          <mxGeometry x="334.5" y="300" width="60" height="20" as="geometry" />
        </mxCell>
        <mxCell id="27J3_kE1SquX3wN85o0Z-119" value="Speakers" style="text;html=1;align=center;verticalAlign=middle;resizable=0;points=[];autosize=1;" vertex="1" parent="27J3_kE1SquX3wN85o0Z-234">
          <mxGeometry x="340" y="185" width="70" height="20" as="geometry" />
        </mxCell>
        <mxCell id="27J3_kE1SquX3wN85o0Z-142" value="Devices" style="text;html=1;align=center;verticalAlign=middle;resizable=0;points=[];autosize=1;" vertex="1" parent="27J3_kE1SquX3wN85o0Z-234">
          <mxGeometry x="246.5" y="40" width="60" height="20" as="geometry" />
        </mxCell>
        <mxCell id="27J3_kE1SquX3wN85o0Z-143" value="Mobile App" style="text;html=1;align=center;verticalAlign=middle;resizable=0;points=[];autosize=1;" vertex="1" parent="27J3_kE1SquX3wN85o0Z-234">
          <mxGeometry x="65" y="66.5" width="80" height="20" as="geometry" />
        </mxCell>
        <mxCell id="27J3_kE1SquX3wN85o0Z-150" value="" style="group" vertex="1" connectable="0" parent="27J3_kE1SquX3wN85o0Z-234">
          <mxGeometry x="30" y="130" width="58.5" height="49.57999999999993" as="geometry" />
        </mxCell>
        <mxCell id="27J3_kE1SquX3wN85o0Z-126" value="" style="ellipse;whiteSpace=wrap;html=1;dashed=1;strokeColor=#33001A;strokeWidth=1;fillColor=#FFFFFF;gradientColor=none;" vertex="1" parent="27J3_kE1SquX3wN85o0Z-150">
          <mxGeometry width="58.5" height="49.58" as="geometry" />
        </mxCell>
        <mxCell id="27J3_kE1SquX3wN85o0Z-167" value="" style="group" vertex="1" connectable="0" parent="27J3_kE1SquX3wN85o0Z-150">
          <mxGeometry x="1" y="1" width="54.25" height="44.57999999999993" as="geometry" />
        </mxCell>
        <mxCell id="27J3_kE1SquX3wN85o0Z-35" value="" style="verticalLabelPosition=bottom;html=1;verticalAlign=top;align=center;strokeColor=none;fillColor=#00BEF2;shape=mxgraph.azure.user;" vertex="1" parent="27J3_kE1SquX3wN85o0Z-167">
          <mxGeometry x="10" y="4.579999999999927" width="10" height="10" as="geometry" />
        </mxCell>
        <mxCell id="27J3_kE1SquX3wN85o0Z-127" value="" style="verticalLabelPosition=bottom;html=1;verticalAlign=top;align=center;strokeColor=none;fillColor=#00BEF2;shape=mxgraph.azure.user;" vertex="1" parent="27J3_kE1SquX3wN85o0Z-167">
          <mxGeometry x="24.25" width="10" height="10" as="geometry" />
        </mxCell>
        <mxCell id="27J3_kE1SquX3wN85o0Z-128" value="" style="verticalLabelPosition=bottom;html=1;verticalAlign=top;align=center;strokeColor=none;fillColor=#00BEF2;shape=mxgraph.azure.user;" vertex="1" parent="27J3_kE1SquX3wN85o0Z-167">
          <mxGeometry y="14.579999999999927" width="10" height="10" as="geometry" />
        </mxCell>
        <mxCell id="27J3_kE1SquX3wN85o0Z-129" value="" style="verticalLabelPosition=bottom;html=1;verticalAlign=top;align=center;strokeColor=none;fillColor=#00BEF2;shape=mxgraph.azure.user;" vertex="1" parent="27J3_kE1SquX3wN85o0Z-167">
          <mxGeometry x="10" y="18.789999999999964" width="10" height="10" as="geometry" />
        </mxCell>
        <mxCell id="27J3_kE1SquX3wN85o0Z-130" value="" style="verticalLabelPosition=bottom;html=1;verticalAlign=top;align=center;strokeColor=none;fillColor=#00BEF2;shape=mxgraph.azure.user;" vertex="1" parent="27J3_kE1SquX3wN85o0Z-167">
          <mxGeometry x="27.25" y="34.57999999999993" width="10" height="10" as="geometry" />
        </mxCell>
        <mxCell id="27J3_kE1SquX3wN85o0Z-131" value="" style="verticalLabelPosition=bottom;html=1;verticalAlign=top;align=center;strokeColor=none;fillColor=#00BEF2;shape=mxgraph.azure.user;" vertex="1" parent="27J3_kE1SquX3wN85o0Z-167">
          <mxGeometry x="21" y="11.579999999999927" width="10" height="10" as="geometry" />
        </mxCell>
        <mxCell id="27J3_kE1SquX3wN85o0Z-132" value="" style="verticalLabelPosition=bottom;html=1;verticalAlign=top;align=center;strokeColor=none;fillColor=#00BEF2;shape=mxgraph.azure.user;" vertex="1" parent="27J3_kE1SquX3wN85o0Z-167">
          <mxGeometry x="31" y="19.579999999999927" width="10" height="10" as="geometry" />
        </mxCell>
        <mxCell id="27J3_kE1SquX3wN85o0Z-133" value="" style="verticalLabelPosition=bottom;html=1;verticalAlign=top;align=center;strokeColor=none;fillColor=#00BEF2;shape=mxgraph.azure.user;" vertex="1" parent="27J3_kE1SquX3wN85o0Z-167">
          <mxGeometry x="37.25" y="31.579999999999927" width="10" height="10" as="geometry" />
        </mxCell>
        <mxCell id="27J3_kE1SquX3wN85o0Z-134" value="" style="verticalLabelPosition=bottom;html=1;verticalAlign=top;align=center;strokeColor=none;fillColor=#00BEF2;shape=mxgraph.azure.user;" vertex="1" parent="27J3_kE1SquX3wN85o0Z-167">
          <mxGeometry x="37.25" y="8" width="10" height="10" as="geometry" />
        </mxCell>
        <mxCell id="27J3_kE1SquX3wN85o0Z-135" value="" style="verticalLabelPosition=bottom;html=1;verticalAlign=top;align=center;strokeColor=none;fillColor=#00BEF2;shape=mxgraph.azure.user;" vertex="1" parent="27J3_kE1SquX3wN85o0Z-167">
          <mxGeometry x="44.25" y="20" width="10" height="10" as="geometry" />
        </mxCell>
        <mxCell id="27J3_kE1SquX3wN85o0Z-136" value="" style="verticalLabelPosition=bottom;html=1;verticalAlign=top;align=center;strokeColor=none;fillColor=#00BEF2;shape=mxgraph.azure.user;" vertex="1" parent="27J3_kE1SquX3wN85o0Z-167">
          <mxGeometry x="20" y="24.579999999999927" width="10" height="10" as="geometry" />
        </mxCell>
        <mxCell id="27J3_kE1SquX3wN85o0Z-140" value="" style="verticalLabelPosition=bottom;html=1;verticalAlign=top;align=center;strokeColor=none;fillColor=#00BEF2;shape=mxgraph.azure.user;" vertex="1" parent="27J3_kE1SquX3wN85o0Z-167">
          <mxGeometry x="4" y="27.579999999999927" width="10" height="10" as="geometry" />
        </mxCell>
        <mxCell id="27J3_kE1SquX3wN85o0Z-141" value="" style="verticalLabelPosition=bottom;html=1;verticalAlign=top;align=center;strokeColor=none;fillColor=#00BEF2;shape=mxgraph.azure.user;" vertex="1" parent="27J3_kE1SquX3wN85o0Z-167">
          <mxGeometry x="14" y="34.57999999999993" width="10" height="10" as="geometry" />
        </mxCell>
        <mxCell id="27J3_kE1SquX3wN85o0Z-152" value="" style="group" vertex="1" connectable="0" parent="27J3_kE1SquX3wN85o0Z-234">
          <mxGeometry x="100" y="13.5" width="62.94" height="53" as="geometry" />
        </mxCell>
        <mxCell id="27J3_kE1SquX3wN85o0Z-71" value="" style="ellipse;whiteSpace=wrap;html=1;strokeColor=#33001A;strokeWidth=1;fillColor=#FFFFFF;gradientColor=none;dashed=1;" vertex="1" parent="27J3_kE1SquX3wN85o0Z-152">
          <mxGeometry width="62.94" height="53" as="geometry" />
        </mxCell>
        <mxCell id="27J3_kE1SquX3wN85o0Z-53" value="" style="aspect=fixed;html=1;points=[];align=center;image;fontSize=12;image=img/lib/mscae/App_Service_Mobile_App.svg;strokeColor=#33001A;strokeWidth=1;fillColor=#FFFFFF;gradientColor=none;" vertex="1" parent="27J3_kE1SquX3wN85o0Z-152">
          <mxGeometry x="27.80000000000001" y="26.5" width="6.8" height="10" as="geometry" />
        </mxCell>
        <mxCell id="27J3_kE1SquX3wN85o0Z-54" value="" style="aspect=fixed;html=1;points=[];align=center;image;fontSize=12;image=img/lib/mscae/App_Service_Mobile_App.svg;strokeColor=#33001A;strokeWidth=1;fillColor=#FFFFFF;gradientColor=none;" vertex="1" parent="27J3_kE1SquX3wN85o0Z-152">
          <mxGeometry x="37" y="26.5" width="6.8" height="10" as="geometry" />
        </mxCell>
        <mxCell id="27J3_kE1SquX3wN85o0Z-55" value="" style="aspect=fixed;html=1;points=[];align=center;image;fontSize=12;image=img/lib/mscae/App_Service_Mobile_App.svg;strokeColor=#33001A;strokeWidth=1;fillColor=#FFFFFF;gradientColor=none;" vertex="1" parent="27J3_kE1SquX3wN85o0Z-152">
          <mxGeometry x="17.80000000000001" y="26.5" width="6.8" height="10" as="geometry" />
        </mxCell>
        <mxCell id="27J3_kE1SquX3wN85o0Z-56" value="" style="aspect=fixed;html=1;points=[];align=center;image;fontSize=12;image=img/lib/mscae/App_Service_Mobile_App.svg;strokeColor=#33001A;strokeWidth=1;fillColor=#FFFFFF;gradientColor=none;" vertex="1" parent="27J3_kE1SquX3wN85o0Z-152">
          <mxGeometry x="17.80000000000001" y="38.5" width="6.8" height="10" as="geometry" />
        </mxCell>
        <mxCell id="27J3_kE1SquX3wN85o0Z-57" value="" style="aspect=fixed;html=1;points=[];align=center;image;fontSize=12;image=img/lib/mscae/App_Service_Mobile_App.svg;strokeColor=#33001A;strokeWidth=1;fillColor=#FFFFFF;gradientColor=none;" vertex="1" parent="27J3_kE1SquX3wN85o0Z-152">
          <mxGeometry x="27.80000000000001" y="38.5" width="6.8" height="10" as="geometry" />
        </mxCell>
        <mxCell id="27J3_kE1SquX3wN85o0Z-58" value="" style="aspect=fixed;html=1;points=[];align=center;image;fontSize=12;image=img/lib/mscae/App_Service_Mobile_App.svg;strokeColor=#33001A;strokeWidth=1;fillColor=#FFFFFF;gradientColor=none;" vertex="1" parent="27J3_kE1SquX3wN85o0Z-152">
          <mxGeometry x="37.900000000000034" y="38.5" width="6.8" height="10" as="geometry" />
        </mxCell>
        <mxCell id="27J3_kE1SquX3wN85o0Z-59" value="" style="aspect=fixed;html=1;points=[];align=center;image;fontSize=12;image=img/lib/mscae/App_Service_Mobile_App.svg;strokeColor=#33001A;strokeWidth=1;fillColor=#FFFFFF;gradientColor=none;" vertex="1" parent="27J3_kE1SquX3wN85o0Z-152">
          <mxGeometry x="27.80000000000001" y="13.5" width="6.8" height="10" as="geometry" />
        </mxCell>
        <mxCell id="27J3_kE1SquX3wN85o0Z-60" value="" style="aspect=fixed;html=1;points=[];align=center;image;fontSize=12;image=img/lib/mscae/App_Service_Mobile_App.svg;strokeColor=#33001A;strokeWidth=1;fillColor=#FFFFFF;gradientColor=none;" vertex="1" parent="27J3_kE1SquX3wN85o0Z-152">
          <mxGeometry x="17.80000000000001" y="14.5" width="6.8" height="10" as="geometry" />
        </mxCell>
        <mxCell id="27J3_kE1SquX3wN85o0Z-61" value="" style="aspect=fixed;html=1;points=[];align=center;image;fontSize=12;image=img/lib/mscae/App_Service_Mobile_App.svg;strokeColor=#33001A;strokeWidth=1;fillColor=#FFFFFF;gradientColor=none;" vertex="1" parent="27J3_kE1SquX3wN85o0Z-152">
          <mxGeometry x="37" y="14.5" width="6.8" height="10" as="geometry" />
        </mxCell>
        <mxCell id="27J3_kE1SquX3wN85o0Z-72" value="" style="aspect=fixed;html=1;points=[];align=center;image;fontSize=12;image=img/lib/mscae/App_Service_Mobile_App.svg;strokeColor=#33001A;strokeWidth=1;fillColor=#FFFFFF;gradientColor=none;" vertex="1" parent="27J3_kE1SquX3wN85o0Z-152">
          <mxGeometry x="44.69999999999999" y="14.5" width="6.8" height="10" as="geometry" />
        </mxCell>
        <mxCell id="27J3_kE1SquX3wN85o0Z-73" value="" style="aspect=fixed;html=1;points=[];align=center;image;fontSize=12;image=img/lib/mscae/App_Service_Mobile_App.svg;strokeColor=#33001A;strokeWidth=1;fillColor=#FFFFFF;gradientColor=none;" vertex="1" parent="27J3_kE1SquX3wN85o0Z-152">
          <mxGeometry x="6.300000000000011" y="16.5" width="6.8" height="10" as="geometry" />
        </mxCell>
        <mxCell id="27J3_kE1SquX3wN85o0Z-74" value="" style="aspect=fixed;html=1;points=[];align=center;image;fontSize=12;image=img/lib/mscae/App_Service_Mobile_App.svg;strokeColor=#33001A;strokeWidth=1;fillColor=#FFFFFF;gradientColor=none;" vertex="1" parent="27J3_kE1SquX3wN85o0Z-152">
          <mxGeometry x="6.300000000000011" y="28.5" width="6.8" height="10" as="geometry" />
        </mxCell>
        <mxCell id="27J3_kE1SquX3wN85o0Z-75" value="" style="aspect=fixed;html=1;points=[];align=center;image;fontSize=12;image=img/lib/mscae/App_Service_Mobile_App.svg;strokeColor=#33001A;strokeWidth=1;fillColor=#FFFFFF;gradientColor=none;" vertex="1" parent="27J3_kE1SquX3wN85o0Z-152">
          <mxGeometry x="49.25999999999999" y="28.5" width="6.8" height="10" as="geometry" />
        </mxCell>
        <mxCell id="27J3_kE1SquX3wN85o0Z-76" value="" style="aspect=fixed;html=1;points=[];align=center;image;fontSize=12;image=img/lib/mscae/App_Service_Mobile_App.svg;strokeColor=#33001A;strokeWidth=1;fillColor=#FFFFFF;gradientColor=none;" vertex="1" parent="27J3_kE1SquX3wN85o0Z-152">
          <mxGeometry x="24.600000000000023" y="3.5" width="6.8" height="10" as="geometry" />
        </mxCell>
        <mxCell id="27J3_kE1SquX3wN85o0Z-77" value="" style="aspect=fixed;html=1;points=[];align=center;image;fontSize=12;image=img/lib/mscae/App_Service_Mobile_App.svg;strokeColor=#33001A;strokeWidth=1;fillColor=#FFFFFF;gradientColor=none;" vertex="1" parent="27J3_kE1SquX3wN85o0Z-152">
          <mxGeometry x="34.60000000000002" y="3.5" width="6.8" height="10" as="geometry" />
        </mxCell>
        <mxCell id="27J3_kE1SquX3wN85o0Z-78" value="" style="aspect=fixed;html=1;points=[];align=center;image;fontSize=12;image=img/lib/mscae/App_Service_Mobile_App.svg;strokeColor=#33001A;strokeWidth=1;fillColor=#FFFFFF;gradientColor=none;" vertex="1" parent="27J3_kE1SquX3wN85o0Z-152">
          <mxGeometry x="13.100000000000023" y="6.5" width="6.8" height="10" as="geometry" />
        </mxCell>
        <mxCell id="27J3_kE1SquX3wN85o0Z-79" value="" style="aspect=fixed;html=1;points=[];align=center;image;fontSize=12;image=img/lib/mscae/App_Service_Mobile_App.svg;strokeColor=#33001A;strokeWidth=1;fillColor=#FFFFFF;gradientColor=none;" vertex="1" parent="27J3_kE1SquX3wN85o0Z-152">
          <mxGeometry x="11" y="36.5" width="6.8" height="10" as="geometry" />
        </mxCell>
        <mxCell id="27J3_kE1SquX3wN85o0Z-80" value="" style="aspect=fixed;html=1;points=[];align=center;image;fontSize=12;image=img/lib/mscae/App_Service_Mobile_App.svg;strokeColor=#33001A;strokeWidth=1;fillColor=#FFFFFF;gradientColor=none;" vertex="1" parent="27J3_kE1SquX3wN85o0Z-152">
          <mxGeometry x="44.69999999999999" y="36.5" width="6.8" height="10" as="geometry" />
        </mxCell>
        <mxCell id="27J3_kE1SquX3wN85o0Z-81" value="" style="aspect=fixed;html=1;points=[];align=center;image;fontSize=12;image=img/lib/mscae/App_Service_Mobile_App.svg;strokeColor=#33001A;strokeWidth=1;fillColor=#FFFFFF;gradientColor=none;" vertex="1" parent="27J3_kE1SquX3wN85o0Z-152">
          <mxGeometry x="43.80000000000001" y="24.5" width="6.8" height="10" as="geometry" />
        </mxCell>
        <mxCell id="27J3_kE1SquX3wN85o0Z-82" value="" style="aspect=fixed;html=1;points=[];align=center;image;fontSize=12;image=img/lib/mscae/App_Service_Mobile_App.svg;strokeColor=#33001A;strokeWidth=1;fillColor=#FFFFFF;gradientColor=none;" vertex="1" parent="27J3_kE1SquX3wN85o0Z-152">
          <mxGeometry x="51.5" y="16.5" width="6.8" height="10" as="geometry" />
        </mxCell>
        <mxCell id="27J3_kE1SquX3wN85o0Z-83" value="" style="aspect=fixed;html=1;points=[];align=center;image;fontSize=12;image=img/lib/mscae/App_Service_Mobile_App.svg;strokeColor=#33001A;strokeWidth=1;fillColor=#FFFFFF;gradientColor=none;" vertex="1" parent="27J3_kE1SquX3wN85o0Z-152">
          <mxGeometry x="42.45999999999998" y="6.5" width="6.8" height="10" as="geometry" />
        </mxCell>
        <mxCell id="27J3_kE1SquX3wN85o0Z-155" value="" style="shape=mxgraph.cisco.hubs_and_gateways.cisco_hub;html=1;dashed=0;fillColor=#036897;strokeColor=#ffffff;strokeWidth=2;verticalLabelPosition=bottom;verticalAlign=top" vertex="1" parent="27J3_kE1SquX3wN85o0Z-234">
          <mxGeometry x="55" y="250" width="45.52" height="40" as="geometry" />
        </mxCell>
        <mxCell id="27J3_kE1SquX3wN85o0Z-156" value="" style="endArrow=classic;html=1;exitX=0.084;exitY=0.886;exitDx=0;exitDy=0;exitPerimeter=0;entryX=0.222;entryY=0.664;entryDx=0;entryDy=0;entryPerimeter=0;" edge="1" parent="27J3_kE1SquX3wN85o0Z-234" source="27J3_kE1SquX3wN85o0Z-51" target="27J3_kE1SquX3wN85o0Z-160">
          <mxGeometry width="50" height="50" relative="1" as="geometry">
            <mxPoint x="222.93000000000006" y="225.5" as="sourcePoint" />
            <mxPoint x="150" y="230" as="targetPoint" />
          </mxGeometry>
        </mxCell>
        <mxCell id="27J3_kE1SquX3wN85o0Z-157" value="Gateways" style="text;html=1;align=center;verticalAlign=middle;resizable=0;points=[];autosize=1;" vertex="1" parent="27J3_kE1SquX3wN85o0Z-234">
          <mxGeometry x="42.75999999999999" y="290" width="70" height="20" as="geometry" />
        </mxCell>
        <mxCell id="27J3_kE1SquX3wN85o0Z-170" value="" style="endArrow=classic;html=1;exitX=0.402;exitY=0.392;exitDx=0;exitDy=0;exitPerimeter=0;entryX=0.216;entryY=0.392;entryDx=0;entryDy=0;entryPerimeter=0;" edge="1" parent="27J3_kE1SquX3wN85o0Z-234">
          <mxGeometry width="50" height="50" relative="1" as="geometry">
            <mxPoint x="178.92000000000007" y="156.87999999999988" as="sourcePoint" />
            <mxPoint x="93.36000000000001" y="156.87999999999988" as="targetPoint" />
          </mxGeometry>
        </mxCell>
        <mxCell id="27J3_kE1SquX3wN85o0Z-178" value="" style="group" vertex="1" connectable="0" parent="27J3_kE1SquX3wN85o0Z-234">
          <mxGeometry x="165.85000000000002" y="270" width="88.5" height="95" as="geometry" />
        </mxCell>
        <mxCell id="27J3_kE1SquX3wN85o0Z-151" value="" style="group" vertex="1" connectable="0" parent="27J3_kE1SquX3wN85o0Z-178">
          <mxGeometry width="88.5" height="95" as="geometry" />
        </mxCell>
        <mxCell id="27J3_kE1SquX3wN85o0Z-115" value="" style="ellipse;whiteSpace=wrap;html=1;dashed=1;strokeColor=#33001A;strokeWidth=1;fillColor=#FFFFFF;gradientColor=none;" vertex="1" parent="27J3_kE1SquX3wN85o0Z-151">
          <mxGeometry width="88.5" height="75" as="geometry" />
        </mxCell>
        <mxCell id="27J3_kE1SquX3wN85o0Z-99" value="" style="shape=image;html=1;verticalAlign=top;verticalLabelPosition=bottom;labelBackgroundColor=#ffffff;imageAspect=0;aspect=fixed;image=https://cdn0.iconfinder.com/data/icons/Hand_Drawn_Web_Icon_Set/128/printers.png;strokeColor=#33001A;strokeWidth=1;fillColor=#FFFFFF;gradientColor=none;" vertex="1" parent="27J3_kE1SquX3wN85o0Z-151">
          <mxGeometry x="29.44999999999999" y="2.2000000000000455" width="18.2" height="18.2" as="geometry" />
        </mxCell>
        <mxCell id="27J3_kE1SquX3wN85o0Z-103" value="" style="shape=image;html=1;verticalAlign=top;verticalLabelPosition=bottom;labelBackgroundColor=#ffffff;imageAspect=0;aspect=fixed;image=https://cdn0.iconfinder.com/data/icons/Hand_Drawn_Web_Icon_Set/128/printers.png;strokeColor=#33001A;strokeWidth=1;fillColor=#FFFFFF;gradientColor=none;" vertex="1" parent="27J3_kE1SquX3wN85o0Z-151">
          <mxGeometry x="49.64999999999998" y="2" width="18.2" height="18.2" as="geometry" />
        </mxCell>
        <mxCell id="27J3_kE1SquX3wN85o0Z-177" value="" style="group" vertex="1" connectable="0" parent="27J3_kE1SquX3wN85o0Z-151">
          <mxGeometry x="5.899999999999977" y="12.200000000000045" width="77.91000000000004" height="82.79999999999995" as="geometry" />
        </mxCell>
        <mxCell id="27J3_kE1SquX3wN85o0Z-40" value="" style="shape=image;html=1;verticalAlign=top;verticalLabelPosition=bottom;labelBackgroundColor=#ffffff;imageAspect=0;aspect=fixed;image=https://cdn0.iconfinder.com/data/icons/Hand_Drawn_Web_Icon_Set/128/printers.png;strokeColor=#33001A;strokeWidth=1;fillColor=#FFFFFF;gradientColor=none;" vertex="1" parent="27J3_kE1SquX3wN85o0Z-177">
          <mxGeometry x="5.349999999999966" width="18.2" height="18.2" as="geometry" />
        </mxCell>
        <mxCell id="27J3_kE1SquX3wN85o0Z-100" value="" style="shape=image;html=1;verticalAlign=top;verticalLabelPosition=bottom;labelBackgroundColor=#ffffff;imageAspect=0;aspect=fixed;image=https://cdn0.iconfinder.com/data/icons/Hand_Drawn_Web_Icon_Set/128/printers.png;strokeColor=#33001A;strokeWidth=1;fillColor=#FFFFFF;gradientColor=none;fontStyle=0" vertex="1" parent="27J3_kE1SquX3wN85o0Z-177">
          <mxGeometry x="38.25" y="22.799999999999727" width="18.2" height="18.2" as="geometry" />
        </mxCell>
        <mxCell id="27J3_kE1SquX3wN85o0Z-101" value="" style="shape=image;html=1;verticalAlign=top;verticalLabelPosition=bottom;labelBackgroundColor=#ffffff;imageAspect=0;aspect=fixed;image=https://cdn0.iconfinder.com/data/icons/Hand_Drawn_Web_Icon_Set/128/printers.png;strokeColor=#33001A;strokeWidth=1;fillColor=#FFFFFF;gradientColor=none;" vertex="1" parent="27J3_kE1SquX3wN85o0Z-177">
          <mxGeometry x="24.44999999999999" y="7.199999999999818" width="18.2" height="18.2" as="geometry" />
        </mxCell>
        <mxCell id="27J3_kE1SquX3wN85o0Z-102" value="" style="shape=image;html=1;verticalAlign=top;verticalLabelPosition=bottom;labelBackgroundColor=#ffffff;imageAspect=0;aspect=fixed;image=https://cdn0.iconfinder.com/data/icons/Hand_Drawn_Web_Icon_Set/128/printers.png;strokeColor=#33001A;strokeWidth=1;fillColor=#FFFFFF;gradientColor=none;" vertex="1" parent="27J3_kE1SquX3wN85o0Z-177">
          <mxGeometry x="10.050000000000011" y="18.200000000000045" width="18.2" height="18.2" as="geometry" />
        </mxCell>
        <mxCell id="27J3_kE1SquX3wN85o0Z-104" value="" style="shape=image;html=1;verticalAlign=top;verticalLabelPosition=bottom;labelBackgroundColor=#ffffff;imageAspect=0;aspect=fixed;image=https://cdn0.iconfinder.com/data/icons/Hand_Drawn_Web_Icon_Set/128/printers.png;strokeColor=#33001A;strokeWidth=1;fillColor=#FFFFFF;gradientColor=none;" vertex="1" parent="27J3_kE1SquX3wN85o0Z-177">
          <mxGeometry x="59.710000000000036" y="25.40000000000009" width="18.2" height="18.2" as="geometry" />
        </mxCell>
        <mxCell id="27J3_kE1SquX3wN85o0Z-105" value="" style="shape=image;html=1;verticalAlign=top;verticalLabelPosition=bottom;labelBackgroundColor=#ffffff;imageAspect=0;aspect=fixed;image=https://cdn0.iconfinder.com/data/icons/Hand_Drawn_Web_Icon_Set/128/printers.png;strokeColor=#33001A;strokeWidth=1;fillColor=#FFFFFF;gradientColor=none;" vertex="1" parent="27J3_kE1SquX3wN85o0Z-177">
          <mxGeometry x="24.44999999999999" y="26.399999999999864" width="18.2" height="18.2" as="geometry" />
        </mxCell>
        <mxCell id="27J3_kE1SquX3wN85o0Z-106" value="" style="shape=image;html=1;verticalAlign=top;verticalLabelPosition=bottom;labelBackgroundColor=#ffffff;imageAspect=0;aspect=fixed;image=https://cdn0.iconfinder.com/data/icons/Hand_Drawn_Web_Icon_Set/128/printers.png;strokeColor=#33001A;strokeWidth=1;fillColor=#FFFFFF;gradientColor=none;" vertex="1" parent="27J3_kE1SquX3wN85o0Z-177">
          <mxGeometry x="45.05000000000001" y="36.40000000000009" width="18.2" height="18.2" as="geometry" />
        </mxCell>
        <mxCell id="27J3_kE1SquX3wN85o0Z-107" value="" style="shape=image;html=1;verticalAlign=top;verticalLabelPosition=bottom;labelBackgroundColor=#ffffff;imageAspect=0;aspect=fixed;image=https://cdn0.iconfinder.com/data/icons/Hand_Drawn_Web_Icon_Set/128/printers.png;strokeColor=#33001A;strokeWidth=1;fillColor=#FFFFFF;gradientColor=none;" vertex="1" parent="27J3_kE1SquX3wN85o0Z-177">
          <mxGeometry x="59.710000000000036" y="8.200000000000045" width="18.2" height="18.2" as="geometry" />
        </mxCell>
        <mxCell id="27J3_kE1SquX3wN85o0Z-108" value="" style="shape=image;html=1;verticalAlign=top;verticalLabelPosition=bottom;labelBackgroundColor=#ffffff;imageAspect=0;aspect=fixed;image=https://cdn0.iconfinder.com/data/icons/Hand_Drawn_Web_Icon_Set/128/printers.png;strokeColor=#33001A;strokeWidth=1;fillColor=#FFFFFF;gradientColor=none;" vertex="1" parent="27J3_kE1SquX3wN85o0Z-177">
          <mxGeometry x="29.25" y="40.99999999999977" width="18.2" height="18.2" as="geometry" />
        </mxCell>
        <mxCell id="27J3_kE1SquX3wN85o0Z-109" value="" style="shape=image;html=1;verticalAlign=top;verticalLabelPosition=bottom;labelBackgroundColor=#ffffff;imageAspect=0;aspect=fixed;image=https://cdn0.iconfinder.com/data/icons/Hand_Drawn_Web_Icon_Set/128/printers.png;strokeColor=#33001A;strokeWidth=1;fillColor=#FFFFFF;gradientColor=none;" vertex="1" parent="27J3_kE1SquX3wN85o0Z-177">
          <mxGeometry y="18.200000000000045" width="18.25" height="18.25" as="geometry" />
        </mxCell>
        <mxCell id="27J3_kE1SquX3wN85o0Z-112" value="" style="shape=image;html=1;verticalAlign=top;verticalLabelPosition=bottom;labelBackgroundColor=#ffffff;imageAspect=0;aspect=fixed;image=https://cdn0.iconfinder.com/data/icons/Hand_Drawn_Web_Icon_Set/128/printers.png;strokeColor=#33001A;strokeWidth=1;fillColor=#FFFFFF;gradientColor=none;" vertex="1" parent="27J3_kE1SquX3wN85o0Z-177">
          <mxGeometry x="7.96999999999997" y="36.399999999999864" width="18.2" height="18.2" as="geometry" />
        </mxCell>
        <mxCell id="27J3_kE1SquX3wN85o0Z-113" value="" style="shape=image;html=1;verticalAlign=top;verticalLabelPosition=bottom;labelBackgroundColor=#ffffff;imageAspect=0;aspect=fixed;image=https://cdn0.iconfinder.com/data/icons/Hand_Drawn_Web_Icon_Set/128/printers.png;strokeColor=#33001A;strokeWidth=1;fillColor=#FFFFFF;gradientColor=none;" vertex="1" parent="27J3_kE1SquX3wN85o0Z-177">
          <mxGeometry x="41.51000000000005" y="8.199999999999818" width="18.2" height="18.2" as="geometry" />
        </mxCell>
        <mxCell id="27J3_kE1SquX3wN85o0Z-117" value="Printers" style="text;html=1;align=center;verticalAlign=middle;resizable=0;points=[];autosize=1;" vertex="1" parent="27J3_kE1SquX3wN85o0Z-177">
          <mxGeometry x="10.449999999999989" y="62.799999999999955" width="60" height="20" as="geometry" />
        </mxCell>
        <mxCell id="27J3_kE1SquX3wN85o0Z-181" value="" style="group" vertex="1" connectable="0" parent="27J3_kE1SquX3wN85o0Z-234">
          <mxGeometry x="234" y="19" width="21" height="25.5" as="geometry" />
        </mxCell>
        <mxCell id="27J3_kE1SquX3wN85o0Z-180" value="" style="group" vertex="1" connectable="0" parent="27J3_kE1SquX3wN85o0Z-181">
          <mxGeometry width="21" height="25.5" as="geometry" />
        </mxCell>
        <mxCell id="27J3_kE1SquX3wN85o0Z-179" value="" style="group" vertex="1" connectable="0" parent="27J3_kE1SquX3wN85o0Z-180">
          <mxGeometry width="21" height="25.5" as="geometry" />
        </mxCell>
        <mxCell id="27J3_kE1SquX3wN85o0Z-96" value="" style="shape=image;html=1;verticalAlign=top;verticalLabelPosition=bottom;labelBackgroundColor=#ffffff;imageAspect=0;aspect=fixed;image=https://cdn4.iconfinder.com/data/icons/logos-and-brands/512/272_Raspberry_Pi_logo-128.png;dashed=1;strokeColor=#33001A;strokeWidth=1;fillColor=#FFFFFF;gradientColor=none;" vertex="1" parent="27J3_kE1SquX3wN85o0Z-179">
          <mxGeometry y="10" width="10" height="10" as="geometry" />
        </mxCell>
        <mxCell id="27J3_kE1SquX3wN85o0Z-121" value="" style="shape=image;html=1;verticalAlign=top;verticalLabelPosition=bottom;labelBackgroundColor=#ffffff;imageAspect=0;aspect=fixed;image=https://cdn4.iconfinder.com/data/icons/logos-and-brands/512/272_Raspberry_Pi_logo-128.png;dashed=1;strokeColor=#33001A;strokeWidth=1;fillColor=#FFFFFF;gradientColor=none;" vertex="1" parent="27J3_kE1SquX3wN85o0Z-179">
          <mxGeometry x="5" width="12" height="12" as="geometry" />
        </mxCell>
        <mxCell id="27J3_kE1SquX3wN85o0Z-125" value="" style="shape=image;html=1;verticalAlign=top;verticalLabelPosition=bottom;labelBackgroundColor=#ffffff;imageAspect=0;aspect=fixed;image=https://cdn4.iconfinder.com/data/icons/logos-and-brands/512/272_Raspberry_Pi_logo-128.png;dashed=1;strokeColor=#33001A;strokeWidth=1;fillColor=#FFFFFF;gradientColor=none;" vertex="1" parent="27J3_kE1SquX3wN85o0Z-179">
          <mxGeometry x="8" y="12.5" width="13" height="13" as="geometry" />
        </mxCell>
        <mxCell id="27J3_kE1SquX3wN85o0Z-182" value="" style="group" vertex="1" connectable="0" parent="27J3_kE1SquX3wN85o0Z-234">
          <mxGeometry x="340" y="30" width="60" height="65" as="geometry" />
        </mxCell>
        <mxCell id="27J3_kE1SquX3wN85o0Z-153" value="" style="group" vertex="1" connectable="0" parent="27J3_kE1SquX3wN85o0Z-182">
          <mxGeometry width="57.25" height="45" as="geometry" />
        </mxCell>
        <mxCell id="27J3_kE1SquX3wN85o0Z-84" value="" style="ellipse;whiteSpace=wrap;html=1;dashed=1;strokeColor=#33001A;strokeWidth=1;fillColor=#FFFFFF;gradientColor=none;" vertex="1" parent="27J3_kE1SquX3wN85o0Z-153">
          <mxGeometry width="57.25" height="45" as="geometry" />
        </mxCell>
        <mxCell id="27J3_kE1SquX3wN85o0Z-62" value="" style="aspect=fixed;perimeter=ellipsePerimeter;html=1;align=center;shadow=0;dashed=0;fontColor=#4277BB;labelBackgroundColor=#ffffff;fontSize=12;spacingTop=3;image;image=img/lib/ibm/users/sensor.svg;strokeColor=#33001A;strokeWidth=1;fillColor=#FFFFFF;gradientColor=none;" vertex="1" parent="27J3_kE1SquX3wN85o0Z-153">
          <mxGeometry x="23.620000000000005" y="5" width="10" height="10" as="geometry" />
        </mxCell>
        <mxCell id="27J3_kE1SquX3wN85o0Z-63" value="" style="aspect=fixed;perimeter=ellipsePerimeter;html=1;align=center;shadow=0;dashed=0;fontColor=#4277BB;labelBackgroundColor=#ffffff;fontSize=12;spacingTop=3;image;image=img/lib/ibm/users/sensor.svg;strokeColor=#33001A;strokeWidth=1;fillColor=#FFFFFF;gradientColor=none;" vertex="1" parent="27J3_kE1SquX3wN85o0Z-153">
          <mxGeometry x="12.620000000000005" y="5" width="10" height="10" as="geometry" />
        </mxCell>
        <mxCell id="27J3_kE1SquX3wN85o0Z-64" value="" style="aspect=fixed;perimeter=ellipsePerimeter;html=1;align=center;shadow=0;dashed=0;fontColor=#4277BB;labelBackgroundColor=#ffffff;fontSize=12;spacingTop=3;image;image=img/lib/ibm/users/sensor.svg;strokeColor=#33001A;strokeWidth=1;fillColor=#FFFFFF;gradientColor=none;" vertex="1" parent="27J3_kE1SquX3wN85o0Z-153">
          <mxGeometry x="12.620000000000005" y="14.5" width="10" height="10" as="geometry" />
        </mxCell>
        <mxCell id="27J3_kE1SquX3wN85o0Z-65" value="" style="aspect=fixed;perimeter=ellipsePerimeter;html=1;align=center;shadow=0;dashed=0;fontColor=#4277BB;labelBackgroundColor=#ffffff;fontSize=12;spacingTop=3;image;image=img/lib/ibm/users/sensor.svg;strokeColor=#33001A;strokeWidth=1;fillColor=#FFFFFF;gradientColor=none;" vertex="1" parent="27J3_kE1SquX3wN85o0Z-153">
          <mxGeometry x="22.620000000000005" y="15.5" width="10" height="10" as="geometry" />
        </mxCell>
        <mxCell id="27J3_kE1SquX3wN85o0Z-66" value="" style="aspect=fixed;perimeter=ellipsePerimeter;html=1;align=center;shadow=0;dashed=0;fontColor=#4277BB;labelBackgroundColor=#ffffff;fontSize=12;spacingTop=3;image;image=img/lib/ibm/users/sensor.svg;strokeColor=#33001A;strokeWidth=1;fillColor=#FFFFFF;gradientColor=none;rotation=-15;" vertex="1" parent="27J3_kE1SquX3wN85o0Z-153">
          <mxGeometry x="12.620000000000005" y="32" width="10" height="10" as="geometry" />
        </mxCell>
        <mxCell id="27J3_kE1SquX3wN85o0Z-67" value="" style="aspect=fixed;perimeter=ellipsePerimeter;html=1;align=center;shadow=0;dashed=0;fontColor=#4277BB;labelBackgroundColor=#ffffff;fontSize=12;spacingTop=3;image;image=img/lib/ibm/users/sensor.svg;strokeColor=#33001A;strokeWidth=1;fillColor=#FFFFFF;gradientColor=none;" vertex="1" parent="27J3_kE1SquX3wN85o0Z-153">
          <mxGeometry x="23.620000000000005" y="33" width="10" height="10" as="geometry" />
        </mxCell>
        <mxCell id="27J3_kE1SquX3wN85o0Z-68" value="" style="aspect=fixed;perimeter=ellipsePerimeter;html=1;align=center;shadow=0;dashed=0;fontColor=#4277BB;labelBackgroundColor=#ffffff;fontSize=12;spacingTop=3;image;image=img/lib/ibm/users/sensor.svg;strokeColor=#33001A;strokeWidth=1;fillColor=#FFFFFF;gradientColor=none;" vertex="1" parent="27J3_kE1SquX3wN85o0Z-153">
          <mxGeometry x="35.120000000000005" y="5" width="10" height="10" as="geometry" />
        </mxCell>
        <mxCell id="27J3_kE1SquX3wN85o0Z-69" value="" style="aspect=fixed;perimeter=ellipsePerimeter;html=1;align=center;shadow=0;dashed=0;fontColor=#4277BB;labelBackgroundColor=#ffffff;fontSize=12;spacingTop=3;image;image=img/lib/ibm/users/sensor.svg;strokeColor=#33001A;strokeWidth=1;fillColor=#FFFFFF;gradientColor=none;" vertex="1" parent="27J3_kE1SquX3wN85o0Z-153">
          <mxGeometry x="35.120000000000005" y="14.5" width="10" height="10" as="geometry" />
        </mxCell>
        <mxCell id="27J3_kE1SquX3wN85o0Z-70" value="" style="aspect=fixed;perimeter=ellipsePerimeter;html=1;align=center;shadow=0;dashed=0;fontColor=#4277BB;labelBackgroundColor=#ffffff;fontSize=12;spacingTop=3;image;image=img/lib/ibm/users/sensor.svg;strokeColor=#33001A;strokeWidth=1;fillColor=#FFFFFF;gradientColor=none;" vertex="1" parent="27J3_kE1SquX3wN85o0Z-153">
          <mxGeometry x="34.120000000000005" y="30" width="10" height="10" as="geometry" />
        </mxCell>
        <mxCell id="27J3_kE1SquX3wN85o0Z-85" value="" style="aspect=fixed;perimeter=ellipsePerimeter;html=1;align=center;shadow=0;dashed=0;fontColor=#4277BB;labelBackgroundColor=#ffffff;fontSize=12;spacingTop=3;image;image=img/lib/ibm/users/sensor.svg;strokeColor=#33001A;strokeWidth=1;fillColor=#FFFFFF;gradientColor=none;" vertex="1" parent="27J3_kE1SquX3wN85o0Z-153">
          <mxGeometry x="44.620000000000005" y="18" width="10" height="10" as="geometry" />
        </mxCell>
        <mxCell id="27J3_kE1SquX3wN85o0Z-86" value="" style="aspect=fixed;perimeter=ellipsePerimeter;html=1;align=center;shadow=0;dashed=0;fontColor=#4277BB;labelBackgroundColor=#ffffff;fontSize=12;spacingTop=3;image;image=img/lib/ibm/users/sensor.svg;strokeColor=#33001A;strokeWidth=1;fillColor=#FFFFFF;gradientColor=none;" vertex="1" parent="27J3_kE1SquX3wN85o0Z-153">
          <mxGeometry x="41.620000000000005" y="27.5" width="10" height="10" as="geometry" />
        </mxCell>
        <mxCell id="27J3_kE1SquX3wN85o0Z-87" value="" style="aspect=fixed;perimeter=ellipsePerimeter;html=1;align=center;shadow=0;dashed=0;fontColor=#4277BB;labelBackgroundColor=#ffffff;fontSize=12;spacingTop=3;image;image=img/lib/ibm/users/sensor.svg;strokeColor=#33001A;strokeWidth=1;fillColor=#FFFFFF;gradientColor=none;" vertex="1" parent="27J3_kE1SquX3wN85o0Z-153">
          <mxGeometry x="2.6200000000000045" y="23" width="10" height="10" as="geometry" />
        </mxCell>
        <mxCell id="27J3_kE1SquX3wN85o0Z-89" value="" style="aspect=fixed;perimeter=ellipsePerimeter;html=1;align=center;shadow=0;dashed=0;fontColor=#4277BB;labelBackgroundColor=#ffffff;fontSize=12;spacingTop=3;image;image=img/lib/ibm/users/sensor.svg;strokeColor=#33001A;strokeWidth=1;fillColor=#FFFFFF;gradientColor=none;" vertex="1" parent="27J3_kE1SquX3wN85o0Z-153">
          <mxGeometry x="2.6200000000000045" y="13" width="10" height="10" as="geometry" />
        </mxCell>
        <mxCell id="27J3_kE1SquX3wN85o0Z-90" value="" style="aspect=fixed;perimeter=ellipsePerimeter;html=1;align=center;shadow=0;dashed=0;fontColor=#4277BB;labelBackgroundColor=#ffffff;fontSize=12;spacingTop=3;image;image=img/lib/ibm/users/sensor.svg;strokeColor=#33001A;strokeWidth=1;fillColor=#FFFFFF;gradientColor=none;" vertex="1" parent="27J3_kE1SquX3wN85o0Z-153">
          <mxGeometry x="29.120000000000005" y="23" width="10" height="10" as="geometry" />
        </mxCell>
        <mxCell id="27J3_kE1SquX3wN85o0Z-91" value="" style="aspect=fixed;perimeter=ellipsePerimeter;html=1;align=center;shadow=0;dashed=0;fontColor=#4277BB;labelBackgroundColor=#ffffff;fontSize=12;spacingTop=3;image;image=img/lib/ibm/users/sensor.svg;strokeColor=#33001A;strokeWidth=1;fillColor=#FFFFFF;gradientColor=none;" vertex="1" parent="27J3_kE1SquX3wN85o0Z-153">
          <mxGeometry x="16.120000000000005" y="24" width="10" height="10" as="geometry" />
        </mxCell>
        <mxCell id="27J3_kE1SquX3wN85o0Z-154" value="Sensors" style="text;html=1;align=center;verticalAlign=middle;resizable=0;points=[];autosize=1;" vertex="1" parent="27J3_kE1SquX3wN85o0Z-182">
          <mxGeometry y="45" width="60" height="20" as="geometry" />
        </mxCell>
        <mxCell id="27J3_kE1SquX3wN85o0Z-184" value="" style="endArrow=none;dashed=1;html=1;entryX=0.955;entryY=1.095;entryDx=0;entryDy=0;entryPerimeter=0;exitX=0.302;exitY=0.053;exitDx=0;exitDy=0;exitPerimeter=0;strokeColor=#E6E6E6;" edge="1" parent="27J3_kE1SquX3wN85o0Z-234">
          <mxGeometry width="50" height="50" relative="1" as="geometry">
            <mxPoint x="191.577" y="266.9749999999999" as="sourcePoint" />
            <mxPoint x="140.39999999999998" y="81.40000000000009" as="targetPoint" />
          </mxGeometry>
        </mxCell>
        <mxCell id="27J3_kE1SquX3wN85o0Z-187" value="" style="endArrow=none;dashed=1;html=1;entryX=0.185;entryY=0.456;entryDx=0;entryDy=0;entryPerimeter=0;exitX=0.393;exitY=0.708;exitDx=0;exitDy=0;exitPerimeter=0;strokeColor=#E6E6E6;" edge="1" parent="27J3_kE1SquX3wN85o0Z-234" source="27J3_kE1SquX3wN85o0Z-160" target="27J3_kE1SquX3wN85o0Z-160">
          <mxGeometry width="50" height="50" relative="1" as="geometry">
            <mxPoint x="201.577" y="276.9749999999999" as="sourcePoint" />
            <mxPoint x="150.39999999999998" y="91.40000000000009" as="targetPoint" />
          </mxGeometry>
        </mxCell>
        <mxCell id="27J3_kE1SquX3wN85o0Z-188" value="" style="endArrow=none;dashed=1;html=1;entryX=0.567;entryY=0.077;entryDx=0;entryDy=0;entryPerimeter=0;exitX=0.724;exitY=0.126;exitDx=0;exitDy=0;exitPerimeter=0;strokeColor=#E6E6E6;" edge="1" parent="27J3_kE1SquX3wN85o0Z-234" source="27J3_kE1SquX3wN85o0Z-160" target="27J3_kE1SquX3wN85o0Z-160">
          <mxGeometry width="50" height="50" relative="1" as="geometry">
            <mxPoint x="190.77999999999997" y="286.1200000000001" as="sourcePoint" />
            <mxPoint x="95.10000000000002" y="187.83999999999992" as="targetPoint" />
          </mxGeometry>
        </mxCell>
        <mxCell id="27J3_kE1SquX3wN85o0Z-46" value="" style="endArrow=classic;html=1;entryX=0.731;entryY=0.934;entryDx=0;entryDy=0;entryPerimeter=0;" edge="1" parent="27J3_kE1SquX3wN85o0Z-234" source="27J3_kE1SquX3wN85o0Z-51" target="27J3_kE1SquX3wN85o0Z-71">
          <mxGeometry width="50" height="50" relative="1" as="geometry">
            <mxPoint x="213.04649999999992" y="113.02999999999997" as="sourcePoint" />
            <mxPoint x="212.99479999999994" y="68.99000000000001" as="targetPoint" />
          </mxGeometry>
        </mxCell>
        <mxCell id="27J3_kE1SquX3wN85o0Z-189" value="" style="endArrow=none;dashed=1;html=1;entryX=0.363;entryY=0.133;entryDx=0;entryDy=0;entryPerimeter=0;exitX=0.752;exitY=0.39;exitDx=0;exitDy=0;exitPerimeter=0;strokeColor=#E6E6E6;" edge="1" parent="27J3_kE1SquX3wN85o0Z-234" source="27J3_kE1SquX3wN85o0Z-160" target="27J3_kE1SquX3wN85o0Z-160">
          <mxGeometry width="50" height="50" relative="1" as="geometry">
            <mxPoint x="343.03999999999996" y="59.13999999999987" as="sourcePoint" />
            <mxPoint x="270.82000000000016" y="40.02999999999997" as="targetPoint" />
          </mxGeometry>
        </mxCell>
        <mxCell id="27J3_kE1SquX3wN85o0Z-190" value="" style="endArrow=none;dashed=1;html=1;entryX=0.502;entryY=0.115;entryDx=0;entryDy=0;entryPerimeter=0;exitX=0.185;exitY=0.623;exitDx=0;exitDy=0;exitPerimeter=0;strokeColor=#E6E6E6;" edge="1" parent="27J3_kE1SquX3wN85o0Z-234" source="27J3_kE1SquX3wN85o0Z-160" target="27J3_kE1SquX3wN85o0Z-160">
          <mxGeometry width="50" height="50" relative="1" as="geometry">
            <mxPoint x="201.577" y="276.9749999999999" as="sourcePoint" />
            <mxPoint x="150.39999999999998" y="91.40000000000009" as="targetPoint" />
          </mxGeometry>
        </mxCell>
        <mxCell id="27J3_kE1SquX3wN85o0Z-45" value="" style="endArrow=classic;html=1;entryX=0.01;entryY=0.79;entryDx=0;entryDy=0;entryPerimeter=0;" edge="1" parent="27J3_kE1SquX3wN85o0Z-234" source="27J3_kE1SquX3wN85o0Z-51" target="27J3_kE1SquX3wN85o0Z-154">
          <mxGeometry width="50" height="50" relative="1" as="geometry">
            <mxPoint x="275.25" y="136.5178571428571" as="sourcePoint" />
            <mxPoint x="340" y="110" as="targetPoint" />
          </mxGeometry>
        </mxCell>
        <mxCell id="27J3_kE1SquX3wN85o0Z-191" value="" style="endArrow=none;dashed=1;html=1;entryX=0.437;entryY=1.19;entryDx=0;entryDy=0;entryPerimeter=0;exitX=0.802;exitY=0.367;exitDx=0;exitDy=0;exitPerimeter=0;strokeColor=#E6E6E6;" edge="1" parent="27J3_kE1SquX3wN85o0Z-234" source="27J3_kE1SquX3wN85o0Z-160" target="27J3_kE1SquX3wN85o0Z-154">
          <mxGeometry width="50" height="50" relative="1" as="geometry">
            <mxPoint x="211.577" y="286.9749999999999" as="sourcePoint" />
            <mxPoint x="160.39999999999998" y="101.40000000000009" as="targetPoint" />
          </mxGeometry>
        </mxCell>
        <mxCell id="27J3_kE1SquX3wN85o0Z-231" value="&lt;font style=&quot;font-size: 12px&quot; face=&quot;Times New Roman&quot;&gt;&lt;b&gt;Service Type&amp;nbsp;&lt;/b&gt;&lt;br&gt;(sync group)&amp;nbsp;&amp;nbsp;&lt;br&gt;e.g. /uofm/discovery/image-proc&lt;/font&gt;" style="text;html=1;align=center;verticalAlign=middle;resizable=0;points=[];autosize=1;" vertex="1" parent="1">
          <mxGeometry x="40" y="1105" width="170" height="50" as="geometry" />
        </mxCell>
        <mxCell id="27J3_kE1SquX3wN85o0Z-315" value="" style="group" vertex="1" connectable="0" parent="1">
          <mxGeometry x="560" y="1040" width="390" height="310" as="geometry" />
        </mxCell>
        <mxCell id="27J3_kE1SquX3wN85o0Z-313" value="" style="rounded=0;whiteSpace=wrap;html=1;strokeColor=none;strokeWidth=1;fillColor=#ffffff;gradientColor=none;fontColor=#33001A;" vertex="1" parent="27J3_kE1SquX3wN85o0Z-315">
          <mxGeometry x="10" width="380" height="310" as="geometry" />
        </mxCell>
        <mxCell id="27J3_kE1SquX3wN85o0Z-256" value="" style="endArrow=classic;html=1;" edge="1" parent="27J3_kE1SquX3wN85o0Z-315">
          <mxGeometry width="50" height="50" relative="1" as="geometry">
            <mxPoint x="204" y="34.5" as="sourcePoint" />
            <mxPoint x="203" y="102.5" as="targetPoint" />
          </mxGeometry>
        </mxCell>
        <mxCell id="27J3_kE1SquX3wN85o0Z-285" value="" style="rounded=0;whiteSpace=wrap;html=1;strokeColor=#b85450;strokeWidth=1;fillColor=#f8cecc;" vertex="1" parent="27J3_kE1SquX3wN85o0Z-315">
          <mxGeometry x="167.5" y="10" width="73" height="25" as="geometry" />
        </mxCell>
        <mxCell id="27J3_kE1SquX3wN85o0Z-232" value="&amp;nbsp; &amp;nbsp;&lt;b&gt;Application name&lt;/b&gt;&lt;br&gt;e.g. /uofm/printer1" style="text;html=1;align=center;verticalAlign=middle;resizable=0;points=[];autosize=1;" vertex="1" parent="27J3_kE1SquX3wN85o0Z-315">
          <mxGeometry y="62.5" width="130" height="30" as="geometry" />
        </mxCell>
        <mxCell id="27J3_kE1SquX3wN85o0Z-239" value="&lt;font face=&quot;Times New Roman&quot;&gt;printer1&lt;/font&gt;" style="text;html=1;align=center;verticalAlign=middle;resizable=0;points=[];autosize=1;gradientColor=none;fillColor=#d5e8d4;strokeColor=#82b366;" vertex="1" parent="27J3_kE1SquX3wN85o0Z-315">
          <mxGeometry x="85" y="102.5" width="50" height="20" as="geometry" />
        </mxCell>
        <mxCell id="27J3_kE1SquX3wN85o0Z-287" value="&lt;font face=&quot;Times New Roman&quot;&gt;seq-num&lt;/font&gt;" style="text;html=1;align=center;verticalAlign=middle;resizable=0;points=[];autosize=1;fillColor=none;strokeColor=none;" vertex="1" parent="27J3_kE1SquX3wN85o0Z-315">
          <mxGeometry x="80" y="242.5" width="60" height="20" as="geometry" />
        </mxCell>
        <mxCell id="27J3_kE1SquX3wN85o0Z-240" value="&lt;font face=&quot;Times New Roman&quot;&gt;library&lt;/font&gt;" style="text;html=1;align=center;verticalAlign=middle;resizable=0;points=[];autosize=1;strokeWidth=1;fillColor=#cdeb8b;strokeColor=#36393d;" vertex="1" parent="27J3_kE1SquX3wN85o0Z-315">
          <mxGeometry x="179" y="102.5" width="50" height="20" as="geometry" />
        </mxCell>
        <mxCell id="27J3_kE1SquX3wN85o0Z-241" value="&lt;font face=&quot;Times New Roman&quot;&gt;net-lab&lt;/font&gt;" style="text;html=1;align=center;verticalAlign=middle;resizable=0;points=[];autosize=1;strokeWidth=1;fillColor=#cdeb8b;strokeColor=#36393d;" vertex="1" parent="27J3_kE1SquX3wN85o0Z-315">
          <mxGeometry x="270" y="102.5" width="50" height="20" as="geometry" />
        </mxCell>
        <mxCell id="27J3_kE1SquX3wN85o0Z-246" value="&lt;font face=&quot;Times New Roman&quot;&gt;net-wisdom&lt;/font&gt;" style="text;html=1;align=center;verticalAlign=middle;resizable=0;points=[];autosize=1;gradientColor=none;fillColor=#d5e8d4;strokeColor=#82b366;" vertex="1" parent="27J3_kE1SquX3wN85o0Z-315">
          <mxGeometry x="239" y="182.5" width="70" height="20" as="geometry" />
        </mxCell>
        <mxCell id="27J3_kE1SquX3wN85o0Z-305" value="&lt;font face=&quot;Times New Roman&quot;&gt;seq-num&lt;/font&gt;" style="text;html=1;align=center;verticalAlign=middle;resizable=0;points=[];autosize=1;" vertex="1" parent="27J3_kE1SquX3wN85o0Z-315">
          <mxGeometry x="244" y="242.5" width="60" height="20" as="geometry" />
        </mxCell>
        <mxCell id="27J3_kE1SquX3wN85o0Z-306" value="" style="edgeStyle=orthogonalEdgeStyle;rounded=0;orthogonalLoop=1;jettySize=auto;html=1;shadow=0;startArrow=none;startFill=0;endArrow=classic;endFill=1;strokeColor=#33001A;fontColor=#33001A;" edge="1" parent="27J3_kE1SquX3wN85o0Z-315" source="27J3_kE1SquX3wN85o0Z-246" target="27J3_kE1SquX3wN85o0Z-305">
          <mxGeometry relative="1" as="geometry" />
        </mxCell>
        <mxCell id="27J3_kE1SquX3wN85o0Z-247" value="&lt;font face=&quot;Times New Roman&quot;&gt;cygnux&lt;/font&gt;" style="text;html=1;align=center;verticalAlign=middle;resizable=0;points=[];autosize=1;gradientColor=none;fillColor=#d5e8d4;strokeColor=#82b366;" vertex="1" parent="27J3_kE1SquX3wN85o0Z-315">
          <mxGeometry x="325" y="152.5" width="50" height="20" as="geometry" />
        </mxCell>
        <mxCell id="27J3_kE1SquX3wN85o0Z-307" value="&lt;font face=&quot;Times New Roman&quot;&gt;seq-num&lt;/font&gt;" style="text;html=1;align=center;verticalAlign=middle;resizable=0;points=[];autosize=1;" vertex="1" parent="27J3_kE1SquX3wN85o0Z-315">
          <mxGeometry x="320" y="242.5" width="60" height="20" as="geometry" />
        </mxCell>
        <mxCell id="27J3_kE1SquX3wN85o0Z-308" value="" style="edgeStyle=orthogonalEdgeStyle;rounded=0;orthogonalLoop=1;jettySize=auto;html=1;shadow=0;startArrow=none;startFill=0;endArrow=classic;endFill=1;strokeColor=#33001A;fontColor=#33001A;" edge="1" parent="27J3_kE1SquX3wN85o0Z-315" source="27J3_kE1SquX3wN85o0Z-247" target="27J3_kE1SquX3wN85o0Z-307">
          <mxGeometry relative="1" as="geometry" />
        </mxCell>
        <mxCell id="27J3_kE1SquX3wN85o0Z-253" value="" style="endArrow=classic;html=1;" edge="1" parent="27J3_kE1SquX3wN85o0Z-315" source="27J3_kE1SquX3wN85o0Z-241" target="27J3_kE1SquX3wN85o0Z-247">
          <mxGeometry width="50" height="50" relative="1" as="geometry">
            <mxPoint x="209" y="142.5" as="sourcePoint" />
            <mxPoint x="266.9899999999998" y="202.5" as="targetPoint" />
          </mxGeometry>
        </mxCell>
        <mxCell id="27J3_kE1SquX3wN85o0Z-254" value="" style="endArrow=classic;html=1;entryX=0.5;entryY=0;entryDx=0;entryDy=0;entryPerimeter=0;" edge="1" parent="27J3_kE1SquX3wN85o0Z-315" source="27J3_kE1SquX3wN85o0Z-241" target="27J3_kE1SquX3wN85o0Z-246">
          <mxGeometry width="50" height="50" relative="1" as="geometry">
            <mxPoint x="200" y="142.5" as="sourcePoint" />
            <mxPoint x="167" y="240.5" as="targetPoint" />
          </mxGeometry>
        </mxCell>
        <mxCell id="27J3_kE1SquX3wN85o0Z-258" value="&lt;font style=&quot;font-size: 14px&quot; face=&quot;Times New Roman&quot;&gt;root&lt;/font&gt;" style="text;html=1;align=center;verticalAlign=middle;resizable=0;points=[];autosize=1;strokeWidth=4;" vertex="1" parent="27J3_kE1SquX3wN85o0Z-315">
          <mxGeometry x="185" y="12.5" width="40" height="20" as="geometry" />
        </mxCell>
        <mxCell id="27J3_kE1SquX3wN85o0Z-249" value="" style="endArrow=classic;html=1;entryX=0.605;entryY=0;entryDx=0;entryDy=0;entryPerimeter=0;" edge="1" parent="27J3_kE1SquX3wN85o0Z-315" source="27J3_kE1SquX3wN85o0Z-258" target="27J3_kE1SquX3wN85o0Z-239">
          <mxGeometry width="50" height="50" relative="1" as="geometry">
            <mxPoint x="41" y="143.5" as="sourcePoint" />
            <mxPoint x="120" y="102.5" as="targetPoint" />
          </mxGeometry>
        </mxCell>
        <mxCell id="27J3_kE1SquX3wN85o0Z-274" value="e.g. /uofm/" style="text;html=1;align=center;verticalAlign=middle;resizable=0;points=[];autosize=1;fontColor=#33001A;" vertex="1" parent="27J3_kE1SquX3wN85o0Z-315">
          <mxGeometry x="250" y="12.5" width="70" height="20" as="geometry" />
        </mxCell>
        <mxCell id="27J3_kE1SquX3wN85o0Z-280" value="&lt;font face=&quot;Times New Roman&quot;&gt;printer-red&lt;/font&gt;" style="text;html=1;align=center;verticalAlign=middle;resizable=0;points=[];autosize=1;gradientColor=none;fillColor=#d5e8d4;strokeColor=#82b366;" vertex="1" parent="27J3_kE1SquX3wN85o0Z-315">
          <mxGeometry x="169" y="152.5" width="70" height="20" as="geometry" />
        </mxCell>
        <mxCell id="27J3_kE1SquX3wN85o0Z-255" value="" style="endArrow=classic;html=1;exitX=0.745;exitY=1.1;exitDx=0;exitDy=0;exitPerimeter=0;entryX=0.472;entryY=0.06;entryDx=0;entryDy=0;entryPerimeter=0;" edge="1" parent="27J3_kE1SquX3wN85o0Z-315" source="27J3_kE1SquX3wN85o0Z-258" target="27J3_kE1SquX3wN85o0Z-241">
          <mxGeometry width="50" height="50" relative="1" as="geometry">
            <mxPoint x="194.3507246376812" y="-7.5" as="sourcePoint" />
            <mxPoint x="300" y="109.5" as="targetPoint" />
          </mxGeometry>
        </mxCell>
        <mxCell id="27J3_kE1SquX3wN85o0Z-301" value="&lt;font face=&quot;Times New Roman&quot;&gt;seq-num&lt;/font&gt;" style="text;html=1;align=center;verticalAlign=middle;resizable=0;points=[];autosize=1;fontColor=#33001A;" vertex="1" parent="27J3_kE1SquX3wN85o0Z-315">
          <mxGeometry x="174" y="242.5" width="60" height="20" as="geometry" />
        </mxCell>
        <mxCell id="27J3_kE1SquX3wN85o0Z-289" value="" style="endArrow=classic;html=1;shadow=0;strokeColor=#33001A;fontColor=#33001A;" edge="1" parent="27J3_kE1SquX3wN85o0Z-315">
          <mxGeometry width="50" height="50" relative="1" as="geometry">
            <mxPoint x="107" y="123.5" as="sourcePoint" />
            <mxPoint x="107.46124031007753" y="242.5" as="targetPoint" />
          </mxGeometry>
        </mxCell>
        <mxCell id="27J3_kE1SquX3wN85o0Z-309" value="" style="endArrow=classic;html=1;shadow=0;strokeColor=#33001A;fontColor=#33001A;entryX=0.503;entryY=-0.1;entryDx=0;entryDy=0;entryPerimeter=0;" edge="1" parent="27J3_kE1SquX3wN85o0Z-315" source="27J3_kE1SquX3wN85o0Z-240" target="27J3_kE1SquX3wN85o0Z-280">
          <mxGeometry width="50" height="50" relative="1" as="geometry">
            <mxPoint x="20" y="212.5" as="sourcePoint" />
            <mxPoint x="70" y="162.5" as="targetPoint" />
          </mxGeometry>
        </mxCell>
        <mxCell id="27J3_kE1SquX3wN85o0Z-310" value="Fig: &lt;font face=&quot;Times New Roman&quot;&gt;NDNSD Application Data Namespace Design&lt;/font&gt;" style="text;html=1;align=center;verticalAlign=middle;resizable=0;points=[];autosize=1;fontColor=#33001A;fontFamily=Times New Roman;" vertex="1" parent="27J3_kE1SquX3wN85o0Z-315">
          <mxGeometry x="95" y="280.5" width="260" height="20" as="geometry" />
        </mxCell>
        <mxCell id="27J3_kE1SquX3wN85o0Z-302" value="" style="edgeStyle=orthogonalEdgeStyle;rounded=0;orthogonalLoop=1;jettySize=auto;html=1;shadow=0;startArrow=none;startFill=0;endArrow=classic;endFill=1;strokeColor=#33001A;fontColor=#33001A;" edge="1" parent="27J3_kE1SquX3wN85o0Z-315" source="27J3_kE1SquX3wN85o0Z-280" target="27J3_kE1SquX3wN85o0Z-301">
          <mxGeometry relative="1" as="geometry" />
        </mxCell>
        <mxCell id="27J3_kE1SquX3wN85o0Z-317" value="" style="endArrow=classicThin;html=1;entryX=0.605;entryY=0;entryDx=0;entryDy=0;entryPerimeter=0;exitX=0.306;exitY=0.995;exitDx=0;exitDy=0;exitPerimeter=0;endFill=1;" edge="1" parent="1" source="27J3_kE1SquX3wN85o0Z-334" target="27J3_kE1SquX3wN85o0Z-322">
          <mxGeometry width="50" height="50" relative="1" as="geometry">
            <mxPoint x="562.5" y="1553.5" as="sourcePoint" />
            <mxPoint x="641.5" y="1512.5" as="targetPoint" />
          </mxGeometry>
        </mxCell>
        <mxCell id="27J3_kE1SquX3wN85o0Z-318" value="" style="endArrow=classicThin;html=1;exitX=0.716;exitY=0.92;exitDx=0;exitDy=0;exitPerimeter=0;entryX=0.472;entryY=0.06;entryDx=0;entryDy=0;entryPerimeter=0;endFill=1;" edge="1" parent="1" source="27J3_kE1SquX3wN85o0Z-320" target="27J3_kE1SquX3wN85o0Z-325">
          <mxGeometry width="50" height="50" relative="1" as="geometry">
            <mxPoint x="715.8507246376812" y="1402.5" as="sourcePoint" />
            <mxPoint x="821.5" y="1519.5" as="targetPoint" />
          </mxGeometry>
        </mxCell>
        <mxCell id="27J3_kE1SquX3wN85o0Z-320" value="" style="rounded=0;whiteSpace=wrap;html=1;strokeColor=#b85450;strokeWidth=1;fillColor=#f8cecc;" vertex="1" parent="1">
          <mxGeometry x="689" y="1420" width="81" height="25" as="geometry" />
        </mxCell>
        <mxCell id="27J3_kE1SquX3wN85o0Z-322" value="&lt;div&gt;SD_CTL&lt;/div&gt;" style="text;html=1;align=center;verticalAlign=middle;resizable=0;points=[];autosize=1;gradientColor=none;fillColor=#d5e8d4;strokeColor=#82b366;fontFamily=Times New Roman;" vertex="1" parent="1">
          <mxGeometry x="624" y="1490" width="60" height="20" as="geometry" />
        </mxCell>
        <mxCell id="27J3_kE1SquX3wN85o0Z-325" value="SD" style="text;html=1;align=center;verticalAlign=middle;resizable=0;points=[];autosize=1;strokeWidth=1;fillColor=#cdeb8b;strokeColor=#36393d;fontFamily=Times New Roman;" vertex="1" parent="1">
          <mxGeometry x="780" y="1490" width="30" height="20" as="geometry" />
        </mxCell>
        <mxCell id="27J3_kE1SquX3wN85o0Z-327" value="&lt;div&gt;service-id&lt;/div&gt;" style="text;html=1;align=center;verticalAlign=middle;resizable=0;points=[];autosize=1;gradientColor=none;fillColor=#d5e8d4;strokeColor=#82b366;fontFamily=Times New Roman;" vertex="1" parent="1">
          <mxGeometry x="709.5" y="1562.5" width="60" height="20" as="geometry" />
        </mxCell>
        <mxCell id="27J3_kE1SquX3wN85o0Z-330" value="ADV" style="text;html=1;align=center;verticalAlign=middle;resizable=0;points=[];autosize=1;gradientColor=none;fillColor=#d5e8d4;strokeColor=#82b366;fontFamily=Times New Roman;" vertex="1" parent="1">
          <mxGeometry x="835" y="1562.5" width="40" height="20" as="geometry" />
        </mxCell>
        <mxCell id="27J3_kE1SquX3wN85o0Z-332" value="" style="endArrow=classicThin;html=1;endFill=1;" edge="1" parent="1" source="27J3_kE1SquX3wN85o0Z-325" target="27J3_kE1SquX3wN85o0Z-330">
          <mxGeometry width="50" height="50" relative="1" as="geometry">
            <mxPoint x="730.5" y="1552.5" as="sourcePoint" />
            <mxPoint x="788.4899999999998" y="1612.5" as="targetPoint" />
          </mxGeometry>
        </mxCell>
        <mxCell id="27J3_kE1SquX3wN85o0Z-333" value="" style="endArrow=classicThin;html=1;entryX=0.5;entryY=0;entryDx=0;entryDy=0;entryPerimeter=0;endFill=1;" edge="1" parent="1" source="27J3_kE1SquX3wN85o0Z-325" target="27J3_kE1SquX3wN85o0Z-327">
          <mxGeometry width="50" height="50" relative="1" as="geometry">
            <mxPoint x="721.5" y="1552.5" as="sourcePoint" />
            <mxPoint x="688.5" y="1650.5" as="targetPoint" />
          </mxGeometry>
        </mxCell>
        <mxCell id="27J3_kE1SquX3wN85o0Z-334" value="&lt;b&gt;&lt;font face=&quot;Times New Roman&quot;&gt;&amp;lt;home-prefix&amp;gt;&lt;/font&gt;&lt;/b&gt;" style="text;html=1;align=center;verticalAlign=middle;resizable=0;points=[];autosize=1;strokeWidth=4;" vertex="1" parent="1">
          <mxGeometry x="684.5" y="1422.5" width="90" height="20" as="geometry" />
        </mxCell>
        <mxCell id="27J3_kE1SquX3wN85o0Z-341" value="Fig: &lt;font face=&quot;Times New Roman&quot;&gt;ndn-lite Application Data Namespace Design&lt;/font&gt;" style="text;html=1;align=center;verticalAlign=middle;resizable=0;points=[];autosize=1;fontColor=#33001A;fontFamily=Times New Roman;" vertex="1" parent="1">
          <mxGeometry x="621.5" y="1740" width="260" height="20" as="geometry" />
        </mxCell>
        <mxCell id="27J3_kE1SquX3wN85o0Z-343" value="meta-data" style="text;html=1;align=center;verticalAlign=middle;resizable=0;points=[];autosize=1;strokeWidth=1;fillColor=#f9f7ed;strokeColor=#36393d;fontFamily=Times New Roman;" vertex="1" parent="1">
          <mxGeometry x="621.5" y="1562.5" width="60" height="20" as="geometry" />
        </mxCell>
        <mxCell id="27J3_kE1SquX3wN85o0Z-344" value="granularity" style="text;html=1;align=center;verticalAlign=middle;resizable=0;points=[];autosize=1;gradientColor=none;fillColor=#d5e8d4;strokeColor=#82b366;fontFamily=Times New Roman;" vertex="1" parent="1">
          <mxGeometry x="704.5" y="1620" width="70" height="20" as="geometry" />
        </mxCell>
        <mxCell id="27J3_kE1SquX3wN85o0Z-345" value="discriptor" style="text;html=1;align=center;verticalAlign=middle;resizable=0;points=[];autosize=1;gradientColor=none;fillColor=#d5e8d4;strokeColor=#82b366;fontFamily=Times New Roman;" vertex="1" parent="1">
          <mxGeometry x="709.5" y="1672.5" width="60" height="20" as="geometry" />
        </mxCell>
        <mxCell id="27J3_kE1SquX3wN85o0Z-346" value="location" style="text;html=1;align=center;verticalAlign=middle;resizable=0;points=[];autosize=1;gradientColor=none;fillColor=#d5e8d4;strokeColor=#82b366;fontFamily=Times New Roman;" vertex="1" parent="1">
          <mxGeometry x="835" y="1620" width="50" height="20" as="geometry" />
        </mxCell>
        <mxCell id="27J3_kE1SquX3wN85o0Z-347" value="device-id" style="text;html=1;align=center;verticalAlign=middle;resizable=0;points=[];autosize=1;gradientColor=none;fillColor=#d5e8d4;strokeColor=#82b366;fontFamily=Times New Roman;" vertex="1" parent="1">
          <mxGeometry x="830" y="1672.5" width="60" height="20" as="geometry" />
        </mxCell>
        <mxCell id="27J3_kE1SquX3wN85o0Z-349" value="" style="endArrow=classicThin;html=1;shadow=0;strokeColor=#33001A;fontColor=#33001A;entryX=0.536;entryY=0.035;entryDx=0;entryDy=0;entryPerimeter=0;endFill=1;" edge="1" parent="1" source="27J3_kE1SquX3wN85o0Z-322" target="27J3_kE1SquX3wN85o0Z-343">
          <mxGeometry width="50" height="50" relative="1" as="geometry">
            <mxPoint x="570" y="1560" as="sourcePoint" />
            <mxPoint x="600" y="1520" as="targetPoint" />
          </mxGeometry>
        </mxCell>
        <mxCell id="27J3_kE1SquX3wN85o0Z-350" value="" style="endArrow=classicThin;html=1;shadow=0;strokeColor=#33001A;fontColor=#33001A;endFill=1;" edge="1" parent="1">
          <mxGeometry width="50" height="50" relative="1" as="geometry">
            <mxPoint x="739.103164556962" y="1582.5" as="sourcePoint" />
            <mxPoint x="739" y="1620" as="targetPoint" />
          </mxGeometry>
        </mxCell>
        <mxCell id="27J3_kE1SquX3wN85o0Z-351" value="" style="endArrow=classicThin;html=1;shadow=0;strokeColor=#33001A;fontColor=#33001A;endFill=1;" edge="1" parent="1">
          <mxGeometry width="50" height="50" relative="1" as="geometry">
            <mxPoint x="854.603164556962" y="1582.5" as="sourcePoint" />
            <mxPoint x="855" y="1620" as="targetPoint" />
          </mxGeometry>
        </mxCell>
        <mxCell id="27J3_kE1SquX3wN85o0Z-352" value="" style="endArrow=classicThin;html=1;shadow=0;strokeColor=#33001A;fontColor=#33001A;endFill=1;" edge="1" parent="1">
          <mxGeometry width="50" height="50" relative="1" as="geometry">
            <mxPoint x="739" y="1640" as="sourcePoint" />
            <mxPoint x="739.1" y="1672.5" as="targetPoint" />
          </mxGeometry>
        </mxCell>
        <mxCell id="27J3_kE1SquX3wN85o0Z-353" value="" style="endArrow=classicThin;html=1;shadow=0;strokeColor=#33001A;fontColor=#33001A;entryX=0.536;entryY=0.035;entryDx=0;entryDy=0;entryPerimeter=0;endFill=1;" edge="1" parent="1">
          <mxGeometry width="50" height="50" relative="1" as="geometry">
            <mxPoint x="860" y="1640" as="sourcePoint" />
            <mxPoint x="859.62" y="1673.2" as="targetPoint" />
          </mxGeometry>
        </mxCell>
        <mxCell id="27J3_kE1SquX3wN85o0Z-354" value="&lt;font style=&quot;font-size: 8px&quot;&gt;locator*&lt;/font&gt;" style="text;html=1;align=center;verticalAlign=middle;resizable=0;points=[];autosize=1;fontColor=#33001A;" vertex="1" parent="1">
          <mxGeometry x="745" y="1636" width="40" height="20" as="geometry" />
        </mxCell>
        <mxCell id="27J3_kE1SquX3wN85o0Z-355" value="&lt;font style=&quot;font-size: 9px&quot;&gt;e.g. bedroom&lt;/font&gt;" style="text;html=1;align=center;verticalAlign=middle;resizable=0;points=[];autosize=1;fontFamily=Times New Roman;fontColor=#33001A;" vertex="1" parent="1">
          <mxGeometry x="860" y="1636" width="60" height="20" as="geometry" />
        </mxCell>
      </root>
    </mxGraphModel>
  </diagram>
</mxfile>
